<!DOCTYPE svg PUBLIC "-//W3C//DTD SVG 1.1//EN" "http://www.w3.org/Graphics/SVG/1.1/DTD/svg11.dtd">
<!-- Uploaded to: SVG Repo, www.svgrepo.com, Transformed by: SVG Repo Mixer Tools -->
<svg fill="#ffffff" version="1.1" id="Capa_1" xmlns="http://www.w3.org/2000/svg" xmlns:xlink="http://www.w3.org/1999/xlink" width="64px" height="64px" viewBox="0 0 216.812 216.811" xml:space="preserve">
<g id="SVGRepo_bgCarrier" stroke-width="0"/>
<g id="SVGRepo_tracerCarrier" stroke-linecap="round" stroke-linejoin="round"/>
<g id="SVGRepo_iconCarrier"> <g> <path d="M187.55,44.024h-2.102V28.159c0-3.094-2.506-5.604-5.603-5.604c-3.096,0-5.604,2.509-5.604,5.604v15.866h-12.957 c-0.799-5.4-5.416-9.562-11.043-9.562c-5.625,0-10.233,4.162-11.032,9.562h-15.231c6.271-4.369,10.39-11.608,10.39-19.833 C134.368,10.832,123.535,0,110.174,0C96.812,0,85.979,10.842,85.979,24.191c0,8.225,4.111,15.464,10.389,19.833H81.137 c-0.8-5.4-5.407-9.562-11.033-9.562c-5.624,0-10.242,4.162-11.05,9.562H42.564V28.159c0-3.094-2.498-5.604-5.604-5.604 c-3.105,0-5.603,2.509-5.603,5.604v15.866h-2.101c-3.105,0-5.604,2.506-5.604,5.603c0,3.095,2.499,5.604,5.604,5.604h2.101v155.977 c0,3.091,2.498,5.603,5.603,5.603c3.105,0,5.604-2.512,5.604-5.603V55.231h17.814c1.058,3.078,2.685,5.66,4.968,7.724 c4.314,3.899,9.415,4.867,14.502,4.867c1.629,0,3.25-0.112,4.847-0.241v106.116c0,6.188,5.022,11.206,11.208,11.206 c6.185,0,11.207-5.019,11.207-11.206v-46.004h6.147v46.004c0,6.188,5.02,11.206,11.207,11.206c6.188,0,11.206-5.019,11.206-11.206 V67.582c1.593,0.129,3.203,0.241,4.832,0.241c5.1,0,10.199-0.968,14.5-4.867c2.288-2.068,3.907-4.651,4.985-7.724h14.26v155.977 c0,3.091,2.507,5.603,5.604,5.603c3.104,0,5.604-2.512,5.604-5.603V55.231h2.101c3.104,0,5.604-2.509,5.604-5.604 C193.153,46.531,190.649,44.024,187.55,44.024z"/> </g> </g>
</svg>