<!DOCTYPE svg PUBLIC "-//W3C//DTD SVG 1.1//EN" "http://www.w3.org/Graphics/SVG/1.1/DTD/svg11.dtd">
<!-- Uploaded to: SVG Repo, www.svgrepo.com, Transformed by: SVG Repo Mixer Tools -->
<svg fill="#ffffff" version="1.1" id="Capa_1" xmlns="http://www.w3.org/2000/svg" xmlns:xlink="http://www.w3.org/1999/xlink" width="64px" height="64px" viewBox="0 0 193.42 193.42" xml:space="preserve">
<g id="SVGRepo_bgCarrier" stroke-width="0"/>
<g id="SVGRepo_tracerCarrier" stroke-linecap="round" stroke-linejoin="round"/>
<g id="SVGRepo_iconCarrier"> <g> <path d="M184.939,156.751c-1.084,2.028,0.828,7.861,1.522,10.023c0.049,0.127,0.085,0.256,0.085,0.383 c0.019,0.269,0.335,6.406-1.796,10.4c-0.067,1.023-0.402,3.557-2.138,5.243c-0.889,0.847-2.003,1.34-3.294,1.437 c-0.914,0.877-2.674,1.724-5.061,1.547c-0.828,0.39-2.436,0.914-4.768,0.335c-0.853,0.177-2.643,0.359-5.072-0.469 c-0.743,0.134-2.095,0.183-3.203-0.719c-1.15-0.919-1.662-2.515-1.559-4.737c-0.341-0.194-0.67-0.45-0.975-0.791 c-1.291-1.474-1.644-4.001-1.022-7.478c0.042-0.177,0.098-0.348,0.183-0.499c0.188-0.329,4.549-7.673,9.889-11.047 c0.426-3.652,0.901-9.353,0.487-11.094c-1.419-6.26-2.862-15.102,0.194-21.909c-3.087-1.114-9.572-3.635-12.385-6.138 c-2.99-2.686-5.127-4.725-7.076-7.063c-0.907,5.249-5.328,13.043-18.925,23.76c0.365,4.458,1.717,25.179-3.002,37.126l-2.813-1.103 c4.938-12.513,2.759-36.327,2.734-36.571c-0.055-0.518,0.164-1.017,0.585-1.34c19.826-15.411,19.284-23.65,18.121-26.487 c-0.293-0.713,0.012-1.56,0.7-1.918c0.676-0.366,1.54-0.134,1.961,0.511c2.801,4.33,5.272,6.839,9.718,10.809 c2.686,2.393,10.291,5.23,13.007,6.113c0.432,0.141,0.785,0.476,0.938,0.914c0.158,0.438,0.128,0.907-0.122,1.309 c-3.593,6.022-2.112,15.047-0.694,21.307c0.694,2.989-0.39,11.879-0.523,12.891c-0.061,0.486-0.353,0.907-0.767,1.133 c-4.445,2.472-8.482,8.805-9.274,10.089c-0.548,3.331,0.128,4.415,0.354,4.658c0.012,0,0.036,0,0.049,0 c0.438,0,0.986,0.286,1.278,0.603c0.305,0.336,0.572,0.902,0.512,1.34c-0.28,1.985,0.012,2.99,0.341,3.252 c0.231,0.195,0.779,0.098,0.871,0.066c0.353-0.115,0.688-0.115,1.053,0.013c2.405,0.919,3.952,0.493,4.001,0.469 c0.268-0.097,0.609-0.085,0.883-0.024c2.07,0.609,3.154-0.091,3.197-0.121c0.298-0.184,0.7-0.299,1.065-0.25 c2.313,0.311,3.154-0.785,3.179-0.834c0.292-0.391,0.779-0.658,1.267-0.658c0.036,0,0.128,0.013,0.183,0 c0.712,0,1.267-0.201,1.687-0.627c0.998-0.932,1.229-2.838,1.229-3.495c0-0.269,0.073-0.523,0.207-0.749 c1.498-2.545,1.656-7.069,1.596-8.848c-1.438-4.402-2.801-9.305-1.278-12.19c3.281-6.192,7.678-25.16,7.721-25.355 c2.01-13.365-4.153-22.28-8.232-28.187c-5.931-8.573-17.202-13.886-17.317-13.929c-0.427-0.195-0.749-0.624-0.853-1.084 c-2.722-14.23-15.113-17.914-21.647-17.914c-0.456,0-0.883,0.018-1.278,0.018c-13.707,0-29.191-8.081-29.855-8.437 c-0.499-0.268-0.815-0.78-0.815-1.339c0-10.023,1.796-15.421,1.863-15.646c3.629-5.897,3.55-8.516,3.202-9.578 c-0.255-0.792-0.767-1.023-0.828-1.035c-0.646-0.256-1.102-0.959-0.998-1.662c2.606-17.428-10.065-20.603-10.613-20.722 c-0.013,0-3.38-0.624-5.718-0.398c-0.11,0-0.305,0-0.384,0c-2.405-0.213-5.772,0.411-5.797,0.411 c-0.481,0.125-13.141,3.282-10.546,20.709c0.122,0.733-0.335,1.452-1.047,1.674c-0.012,0-0.524,0.231-0.779,1.023 c-0.359,1.075-0.438,3.693,3.032,9.262c0.225,0.542,2.016,5.928,2.016,15.963c0,0.56-0.317,1.071-0.816,1.339 c-0.658,0.356-16.148,8.437-29.843,8.437c-0.42,0-0.834-0.037-1.278-0.018c-6.546,0-18.913,3.684-21.659,17.914 c-0.085,0.46-0.384,0.853-0.804,1.06c-0.122,0.061-11.016,5.581-16.879,14.014l-0.603,0.89 c-4.256,6.107-10.053,14.443-8.104,27.377c0.024,0.079,4.421,19.047,7.69,25.239c1.535,2.868,0.165,7.775-1.267,12.185 c-0.036,1.022-0.097,5.991,1.596,8.854c0.134,0.226,0.207,0.487,0.219,0.755c0,0.646,0.219,2.539,1.218,3.489 c0.432,0.414,0.98,0.627,1.693,0.627c0.079,0,0.128,0,0.188,0c0.524,0,1.011,0.256,1.279,0.7c0.012,0.013,0.816,1.103,3.142,0.792 c0.372-0.055,0.779,0.055,1.09,0.268c0.03,0,1.133,0.713,3.191,0.11c0.304-0.092,0.621-0.08,0.901,0.029 c0.037,0,1.571,0.427,3.964-0.48c0.365-0.128,0.725-0.128,1.065-0.012c0.104,0.03,0.627,0.134,0.883-0.062 c0.317-0.274,0.597-1.278,0.317-3.251c-0.061-0.445,0.091-0.901,0.39-1.225c0.305-0.359,0.743-0.651,1.188-0.48 c-0.061-0.019,0.134-0.043,0.316-0.287c0.274-0.358,0.816-1.491,0.311-4.597c-0.785-1.291-4.859-7.63-9.286-10.096 c-0.408-0.226-0.7-0.646-0.761-1.133c-0.134-1.005-1.218-9.895-0.542-12.891c1.425-6.254,2.917-15.26-0.688-21.306 c-0.231-0.391-0.268-0.877-0.116-1.31c0.146-0.42,0.511-0.761,0.938-0.907c2.716-0.895,10.315-3.732,13-6.113 c4.463-3.965,6.911-6.467,9.718-10.784c0.426-0.67,1.254-0.913,1.967-0.523c0.682,0.353,0.986,1.169,0.694,1.912 c-1.145,2.831-1.675,11.082,18.127,26.487c0.408,0.316,0.64,0.816,0.591,1.334c-0.024,0.243-2.198,24.082,2.734,36.565 l-2.819,1.108c-4.713-11.947-3.368-32.669-3.008-37.126c-13.603-10.705-18.024-18.511-18.913-23.754 c-1.943,2.339-4.074,4.384-7.076,7.058c-2.826,2.515-9.316,5.035-12.385,6.144c3.057,6.82,1.613,15.661,0.183,21.896 c-0.384,1.735,0.079,7.447,0.499,11.106c5.34,3.355,9.706,10.705,9.889,11.04c0.104,0.152,0.152,0.323,0.183,0.512 c0.609,3.477,0.268,5.991-1.022,7.459c-0.311,0.347-0.646,0.603-0.987,0.804c0.116,2.204-0.396,3.806-1.546,4.737 c-1.121,0.913-2.466,0.858-3.221,0.706c-2.412,0.835-4.208,0.652-5.066,0.476c-0.73,0.177-1.413,0.256-1.997,0.256 c-1.273,0-2.223-0.323-2.771-0.591c-2.466,0.207-4.128-0.664-5.048-1.547c-1.285-0.109-2.412-0.603-3.294-1.443 c-1.717-1.674-2.058-4.201-2.131-5.236c-2.143-3.994-1.82-10.133-1.802-10.4c0-0.134,0.03-0.256,0.073-0.39 c0.779-2.394,2.606-7.995,1.522-10.011c-3.458-6.546-7.806-25.307-7.989-26.098c-2.149-14.23,4.317-23.517,8.586-29.673 l0.621-0.864c5.51-7.956,14.76-13.302,17.33-14.672c3.385-15.57,17.171-19.635,24.509-19.635c0.408,0,0.828,0.012,1.236,0.012 c11.271,0,24.296-6.031,27.645-7.663c-0.122-8.887-1.693-13.707-1.699-13.755c-3.063-4.847-4.177-8.894-3.13-11.691 c0.39-1.022,0.974-1.689,1.51-2.106c-2.369-19.4,12.909-23.078,13.067-23.121c0.219-0.039,3.909-0.736,6.656-0.462 c2.636-0.286,6.314,0.411,6.472,0.457c0.22,0.049,15.51,3.727,13.129,23.127c0.535,0.411,1.139,1.084,1.498,2.101 c1.047,2.792-0.049,6.838-3.258,12.002c0.036,0-1.449,4.801-1.559,13.451c3.343,1.638,16.379,7.663,27.645,7.663 c0.408,0,0.804-0.012,1.248-0.012c7.325,0,21.111,4.053,24.484,19.616c2.68,1.34,12.239,6.516,17.744,14.471 c4.451,6.442,11.033,15.966,8.816,30.629C192.746,131.457,188.41,150.218,184.939,156.751z M145.938,101.212 c0-0.843-0.676-1.522-1.522-1.522c-0.84,0-1.51,0.679-1.51,1.522c0,9.311-8.902,16.892-19.839,16.892 c-10.924,0-19.82-7.581-19.82-16.892v-9.514c0-0.849-0.676-1.516-1.516-1.516c-0.841,0-1.522,0.667-1.522,1.516v9.502 c0,10.997,10.266,19.93,22.858,19.93C135.666,121.13,145.938,112.19,145.938,101.212z M50.527,101.212 c0-0.843-0.67-1.522-1.51-1.522c-0.846,0-1.522,0.679-1.522,1.522c0,10.991,10.266,19.924,22.858,19.924 c12.604,0,22.859-8.945,22.859-19.924v-9.514c0-0.849-0.664-1.516-1.504-1.516c-0.846,0-1.516,0.667-1.516,1.516v9.502 c0,9.311-8.903,16.903-19.839,16.903C59.43,118.104,50.527,110.522,50.527,101.212z M127.683,109.621 c0-1.833-1.449-3.324-3.264-3.324c-1.777,0-3.239,1.491-3.239,3.324c0,1.845,1.449,3.312,3.239,3.312 C126.216,112.934,127.683,111.466,127.683,109.621z M72.241,109.621c0-1.833-1.443-3.324-3.251-3.324 c-1.809,0-3.246,1.491-3.246,3.324c0,1.845,1.443,3.312,3.246,3.312S72.241,111.466,72.241,109.621z M96.671,124.802 c-12.087,0-21.921,9.828-21.921,21.921v26.208c0,0.828,0.676,1.504,1.51,1.504c0.84,0,1.522-0.676,1.522-1.504v-26.208 c0-10.413,8.458-18.87,18.876-18.87c10.413,0,18.876,8.457,18.876,18.87v27.182c0,0.841,0.676,1.517,1.522,1.517 c0.828,0,1.51-0.676,1.51-1.517v-27.182C118.586,134.63,108.758,124.802,96.671,124.802z M103.314,145.426c0.012,0,0.024,0,0.036,0 c4.299,0,7.38-3.051,7.502-3.179c0.585-0.604,0.585-1.547-0.012-2.149c-0.604-0.603-1.56-0.572-2.144,0.012 c-0.019,0.024-2.339,2.277-5.347,2.277c-0.012,0-0.012,0-0.024,0c-1.777-0.012-3.501-0.876-5.145-2.447v-4.385 c0-0.84-0.664-1.522-1.504-1.522c-0.846,0-1.516,0.683-1.516,1.522v4.396c-1.645,1.547-3.343,2.411-5.109,2.436 c-0.012,0-0.024,0-0.048,0c-3.021,0-5.334-2.259-5.346-2.289c-0.597-0.572-1.547-0.579-2.144,0.012s-0.603,1.534-0.012,2.138 c0.134,0.128,3.191,3.179,7.502,3.179c0.012,0,0.024,0,0.037,0c1.802-0.013,3.495-0.719,5.121-1.754v5.535 c-1.645,1.553-3.343,2.423-5.109,2.448c-0.012,0-0.036,0-0.061,0c-3.008,0-5.328-2.248-5.334-2.277 c-0.597-0.573-1.547-0.585-2.144,0.012c-0.597,0.578-0.603,1.534-0.012,2.131c0.134,0.135,3.191,3.16,7.49,3.16 c0.024,0,0.037,0,0.049,0c1.802-0.006,3.495-0.706,5.121-1.741v6.771c-1.645,1.546-3.343,2.429-5.109,2.436 c-0.012,0-0.036,0-0.061,0c-3.008,0-5.328-2.235-5.334-2.277c-0.597-0.572-1.547-0.579-2.144,0.012s-0.603,1.534-0.012,2.138 c0.134,0.128,3.191,3.179,7.49,3.179c0.024,0,0.037,0,0.049,0c1.802-0.013,3.495-0.731,5.121-1.767v2.454 c0,0.841,0.669,1.511,1.516,1.511c0.841,0,1.51-0.67,1.51-1.511v-2.466c1.644,1.047,3.325,1.766,5.127,1.778 c0.012,0,0.036,0,0.049,0c4.299,0,7.367-3.045,7.489-3.179c0.591-0.604,0.585-1.547-0.012-2.149 c-0.604-0.591-1.56-0.579-2.144,0.012c-0.019,0.03-2.339,2.266-5.334,2.266c-0.013,0-0.024,0-0.037,0 c-1.777,0-3.501-0.877-5.139-2.448v-6.771c1.644,1.035,3.325,1.748,5.127,1.76c0.012,0,0.036,0,0.049,0 c4.293,0,7.367-3.025,7.489-3.166c0.591-0.597,0.585-1.553-0.012-2.131c-0.597-0.597-1.547-0.585-2.144-0.012 c-0.019,0.029-2.326,2.277-5.334,2.277c-0.024,0-0.049,0-0.049,0c-1.778-0.025-3.489-0.896-5.127-2.455v-5.541 C99.813,144.694,101.5,145.413,103.314,145.426z M96.683,172.437c-1.553,0-2.801,1.242-2.801,2.783 c0,1.559,1.249,2.801,2.801,2.801c1.535,0,2.765-1.242,2.765-2.801C99.448,173.697,98.218,172.437,96.683,172.437z M41.734,92.456 c-21.19,1.771-23.242,20.514-23.248,20.697c-0.085,0.84,0.53,1.57,1.358,1.662c0.048,0,0.097,0,0.14,0 c0.767,0,1.431-0.591,1.51-1.357c0.073-0.677,1.863-16.429,20.496-17.988c0.828-0.076,1.449-0.794,1.395-1.641 c-0.079-0.792-0.73-1.397-1.51-1.397C41.832,92.45,41.783,92.456,41.734,92.456z M171.891,113.938 c0.061,0.791,0.718,1.412,1.504,1.412c0.042,0,0.066-0.012,0.115-0.012c0.841-0.061,1.449-0.785,1.407-1.619 c-1.547-21.218-20.289-23.419-20.479-23.443c-0.761,0.048-1.564,0.523-1.662,1.352c-0.104,0.828,0.518,1.583,1.346,1.671 C154.773,93.36,170.514,95.287,171.891,113.938z"/> </g> </g>
</svg>