<!DOCTYPE svg PUBLIC "-//W3C//DTD SVG 1.1//EN" "http://www.w3.org/Graphics/SVG/1.1/DTD/svg11.dtd">
<!-- Uploaded to: SVG Repo, www.svgrepo.com, Transformed by: SVG Repo Mixer Tools -->
<svg fill="#ffffff" version="1.1" id="Capa_1" xmlns="http://www.w3.org/2000/svg" xmlns:xlink="http://www.w3.org/1999/xlink" width="64px" height="64px" viewBox="0 0 228.649 228.649" xml:space="preserve">
<g id="SVGRepo_bgCarrier" stroke-width="0"/>
<g id="SVGRepo_tracerCarrier" stroke-linecap="round" stroke-linejoin="round"/>
<g id="SVGRepo_iconCarrier"> <g> <path d="M214.666,135c-1.103,0-1.985,0.893-1.985,1.991v22.758h-36.241c0.263-0.448,0.504-0.892,0.821-1.318 c1.028-1.45,4.344-4.235,6.359-5.51c17.717-11.3,21.208-18.595,21.838-20.427c2.647-4.241,3.124-8.362,1.429-12.279 c-5.253-12.104-30.699-17.612-35.34-18.526c-8.055-8.865-16.646-8.501-22.389-8.266c-9.437,0.432-18.509-4.128-20.632-5.431 c-0.118-0.99-0.29-3.311,0.166-7.384c0.742-0.824,1.837-2.427,2.326-5.133c1.652-0.733,2.498-2.873,3.053-4.818 c0.958-1.401,3.026-4.88,1.743-7.368c-0.306-0.599-0.851-1.277-1.882-1.683c-0.02-4.99-1.56-18.395-17.122-21.264 c-1.267-0.246-3.85-0.241-5.069,0c-15.594,2.87-17.124,16.274-17.14,21.264c-1.015,0.405-1.58,1.084-1.889,1.688 c-1.272,2.487,0.785,5.967,1.744,7.368c0.546,1.95,1.401,4.095,3.063,4.823c0.488,2.695,1.583,4.298,2.332,5.122 c0.437,4.084,0.278,6.41,0.155,7.39c-2.122,1.302-11.088,5.857-20.629,5.425c-5.751-0.235-14.366-0.593-22.47,8.332 c-5.188,1.458-31.703,9.441-35.632,21.337c-1.053,3.196-0.421,6.469,1.851,9.5c0.717,1.976,4.379,9.215,21.808,20.322 c2.033,1.303,5.327,4.056,6.371,5.517c0.303,0.427,0.544,0.87,0.8,1.313H15.982v-22.764c0-1.095-0.898-1.986-1.999-1.986 c-1.102,0-1.994,0.892-1.994,1.986v49.511c0,1.104,0.892,1.991,1.994,1.991c1.106,0,1.999-0.887,1.999-1.991v-22.747h38.662 c1.32,1.734,3.244,3.655,6.538,5.786c0.492,1.004,1.573,2.733,3.391,3.39c0.706,0.252,1.747,0.43,2.967-0.032 c1.437,0.252,3.995,0.462,5.527-0.842c1.692-0.438,3.921-1.604,4.802-3.902c0.38-0.181,0.789-0.454,1.16-0.849 c0.577-0.612,1.214-1.734,1.176-3.556h6.551c0.423,4.52,0.531,9.882-0.165,15.671c-0.128,1.089,0.651,2.087,1.744,2.213 c0.084,0.015,0.164,0.015,0.24,0.015c1,0,1.861-0.748,1.984-1.746c0.724-5.986,0.633-11.485,0.218-16.152H96.6v13.416 c0,1.106,0.898,1.993,1.996,1.993c1.104,0,1.994-0.887,1.994-1.993v-13.411h11.829v1.986c-1.036,1.022-2.09,1.564-3.142,1.576 c-0.012,0-0.022,0-0.036,0c-1.942,0-3.502-1.643-3.514-1.664c-0.744-0.81-2-0.864-2.813-0.12c-0.817,0.739-0.878,1.991-0.14,2.817 c0.275,0.302,2.796,2.961,6.466,2.961c0.014,0,0.019,0,0.03,0c1.091,0,2.14-0.273,3.147-0.733v0.597c0,1.1,0.895,1.998,1.995,1.998 c1.104,0,1.996-0.898,1.996-1.998v-0.597c1.013,0.471,2.071,0.733,3.155,0.733c0.004,0,0.014,0,0.02,0 c3.672,0,6.184-2.659,6.457-2.955c0.745-0.82,0.681-2.061-0.131-2.802c-0.81-0.754-2.056-0.688-2.812,0.12 c-0.018,0.014-1.563,1.664-3.514,1.664c-0.006,0-0.02,0-0.033,0c-1.051-0.011-2.106-0.568-3.149-1.576v-2.008h11.828v14.266 c0,1.094,0.897,1.98,1.993,1.98c1.104,0,1.99-0.887,1.99-1.98v-14.266h5.551c-0.415,4.67-0.505,10.15,0.212,16.147 c0.126,1.089,1.078,1.894,2.217,1.746c1.094-0.126,1.882-1.127,1.751-2.217c-0.695-5.787-0.58-11.151-0.154-15.671h6.556 c-0.038,1.816,0.597,2.933,1.166,3.557c0.379,0.389,0.782,0.668,1.177,0.848c0.864,2.299,3.097,3.464,4.787,3.907 c1.527,1.288,4.09,1.089,5.511,0.837c1.226,0.46,2.26,0.284,2.968,0.035c1.82-0.658,2.92-2.399,3.403-3.395 c3.282-2.129,5.213-4.061,6.532-5.789h38.754v22.752c0,1.105,0.896,1.986,1.995,1.986c1.105,0,1.998-0.881,1.998-1.986v-49.5 C216.675,135.898,215.772,135,214.666,135z M78.694,159.75c-1.396-2.63-3.892-6.155-7.891-7.841 c-0.189-0.088-0.392-0.131-0.593-0.153l-3.898-0.372c-3.99-3.49-8.278-7.42-8.843-8.209c-0.78-1.104-1.4-2.588-2.129-4.301 c-0.941-2.219-2.04-4.804-3.843-7.392c6.538,0.3,17.83,0.136,24.417-3.792c0.315,4.717,2.012,12.459,8.288,22.632 c0.268,0.845,1.31,4.306,2.068,9.439L78.694,159.75L78.694,159.75z M125.779,159.75c0.126-0.114,0.229-0.229,0.263-0.268 c0.745-0.821,0.681-2.068-0.126-2.807c-0.814-0.75-2.061-0.69-2.817,0.114c-0.018,0.022-1.563,1.663-3.506,1.663 c-0.014,0-0.023,0-0.033,0c-1.059-0.011-2.114-0.568-3.149-1.575v-2.999c1.013,0.465,2.071,0.729,3.155,0.733 c0.004,0,0.014,0,0.02,0c3.672,0,6.184-2.648,6.457-2.944c0.745-0.814,0.681-2.079-0.131-2.821 c-0.821-0.741-2.069-0.681-2.816,0.13c-0.019,0.016-1.467,1.729-3.521,1.641c-1.051,0-2.123-0.547-3.172-1.554v-3.502 c0-1.104-0.892-1.986-1.993-1.986c-1.105,0-1.995,0.882-1.995,1.986v3.491c-1.036,1.007-2.089,1.554-3.143,1.564 c-1.76,0.022-3.509-1.603-3.555-1.652c-0.744-0.81-1.994-0.864-2.812-0.118c-0.818,0.742-0.872,2.003-0.129,2.811 c0.275,0.307,2.792,2.95,6.46,2.95c0.011,0,0.02,0,0.03,0c1.092,0,2.14-0.269,3.149-0.733v2.993 c-1.036,1.018-2.096,1.564-3.149,1.575c-0.01,0-0.03,0-0.04,0c-1.91,0-3.45-1.587-3.509-1.652 c-0.744-0.814-1.999-0.864-2.812-0.126c-0.818,0.741-0.878,2.008-0.134,2.818c0.038,0.038,0.134,0.142,0.264,0.268h-2.449v-4.764 c0-8.418,6.202-15.269,13.825-15.269c7.616,0,13.821,6.851,13.821,15.269v4.764H125.779L125.779,159.75z M149.858,159.75h-7.587 c0.767-5.132,1.801-8.583,2.068-9.438c6.369-10.321,8.022-18.124,8.296-22.818c7.026,4.377,17.959,4.498,24.323,4.093 c-1.746,2.55-2.84,5.1-3.76,7.288c-0.723,1.713-1.34,3.185-2.111,4.285c-0.574,0.805-4.854,4.717-8.852,8.214l-3.909,0.36 c-0.208,0.033-0.41,0.083-0.592,0.164C153.743,153.605,151.246,157.124,149.858,159.75z M164.74,166.481 c-0.361,0.229-0.646,0.574-0.805,0.973c-0.229,0.587-0.859,1.56-1.316,1.726c-0.046,0.01-0.126,0.054-0.407-0.1 c-0.419-0.24-0.929-0.317-1.423-0.208c-1.033,0.235-2.413,0.285-2.572,0.308c-0.31-0.493-0.814-0.821-1.389-0.92 c-0.022,0-2.329-0.428-2.496-1.927c-0.118-1.013-0.887-1.773-1.904-1.773c-0.033-0.032-0.099-0.218-0.109-0.579 c0.066-0.187,0.21-0.529,0.373-0.92c0.229-0.263,0.371-0.58,0.437-0.93c1.002-2.036,2.895-5.023,5.896-6.425l4.23-0.398 c0.42-0.039,0.808-0.209,1.125-0.482c2.06-1.789,8.849-7.765,9.97-9.346c1.018-1.461,1.746-3.189,2.528-5.028 c1.318-3.136,2.826-6.687,6.169-9.851c0.627-0.602,0.803-1.542,0.421-2.32c-0.388-0.776-1.215-1.22-2.092-1.104 c-0.219,0.033-22.478,3.185-29.384-5.438c-0.405-0.51-1.008-0.751-1.62-0.733c0.464-1.73,0.789-3.524,0.789-5.419 c0-1.104-0.899-1.99-1.988-1.99c-1.105,0-1.997,0.887-1.997,1.99c0,8.45-6.071,15.322-13.543,15.322 c-7.47,0-13.543-6.883-13.543-15.322v-8.949c0-1.103-0.887-1.994-1.99-1.994c-1.102,0-1.993,0.892-1.993,1.994v8.949 c0,10.649,7.868,19.316,17.542,19.316c6.438,0,12.022-3.89,15.067-9.608c0.135,3.377-0.565,11.354-7.882,23.147 c-0.08,0.113-0.137,0.262-0.191,0.406c-0.107,0.294-1.499,4.441-2.408,10.921h-5.997v-4.772c0-10.621-7.994-19.25-17.816-19.25 c-9.822,0-17.82,8.634-17.82,19.25v4.772h-6.271c-0.906-6.479-2.3-10.627-2.407-10.934c-0.047-0.142-0.112-0.28-0.191-0.394 c-7.711-12.422-8.036-20.75-7.828-23.728c2.971,6.031,8.698,10.188,15.354,10.188c9.677,0,17.543-8.667,17.543-19.316v-8.949 c0-1.103-0.897-1.994-1.994-1.994c-1.104,0-1.994,0.892-1.994,1.994v8.949c0,8.45-6.08,15.322-13.55,15.322 c-7.464,0-13.531-6.883-13.531-15.322c0-1.104-0.892-1.99-1.996-1.99c-1.104,0-1.995,0.887-1.995,1.99 c0,1.913,0.33,3.729,0.808,5.473c-0.819-0.175-1.678,0.143-2.127,0.887c-3.919,6.424-22.5,5.942-29.338,5.22 c-0.834-0.119-1.663,0.362-2.022,1.149c-0.357,0.777-0.185,1.697,0.441,2.282c3.336,3.146,4.842,6.709,6.175,9.855 c0.78,1.839,1.518,3.578,2.544,5.028c1.116,1.57,7.913,7.557,9.962,9.34c0.315,0.274,0.709,0.443,1.127,0.484l4.214,0.393 c4.229,1.985,6.297,7.119,6.719,8.284c0,0.361-0.067,0.559-0.016,0.579c-1.015,0-1.865,0.761-1.984,1.763 c-0.18,1.521-2.5,1.938-2.51,1.938c-0.579,0.099-0.879,0.219-1.183,0.711c-0.374,0.187-1.732,0.137-2.795-0.104 c-0.483-0.115-0.992-0.033-1.424,0.207c-0.257,0.148-0.348,0.115-0.391,0.105c-0.461-0.153-1.073-1.118-1.309-1.726 c-0.155-0.398-0.435-0.748-0.808-0.979c-5.118-3.206-6.481-5.634-7.803-7.988c-0.464-0.826-0.908-1.62-1.452-2.376 c-1.497-2.101-5.363-5.215-7.471-6.555c-18.018-11.497-20.21-18.354-20.222-18.375c-0.068-0.274-0.197-0.536-0.369-0.767 c-1.625-2.057-2.09-4.05-1.417-6.062c2.914-8.833,25.141-16.646,33.461-18.908c0.383-0.108,0.717-0.322,0.983-0.611 c6.953-7.95,14.325-7.644,19.694-7.42c11.762,0.488,22.791-5.669,23.951-6.78c0.268-0.252,0.486-0.621,0.599-1.004h0.005 c0.086-0.301,0.807-3.16-0.031-10.197c-0.061-0.515-0.375-1.032-0.771-1.354c-0.063-0.053-1.464-1.234-1.678-4.715 c-0.049-0.801-0.575-1.497-1.333-1.759c-0.304-0.107-0.615-0.128-0.93-0.096c-0.196-0.375-0.481-1.053-0.801-2.23 c-0.06-0.235-0.167-0.454-0.308-0.643c-0.913-1.278-1.715-3.062-1.833-3.308c0,0,1.413,0,2.081-0.738 c0.38-0.427,0.561-0.999,0.492-1.557c-0.079-0.651-1.699-15.898,13.838-18.76c0.887-0.175,2.653-0.181,3.582,0 c15.425,2.84,13.9,18.109,13.821,18.76c-0.06,0.567,0.121,1.13,0.504,1.557c0.374,0.427,0.92,0.667,1.49,0.667 c0.15,0,0.284,0.012,0.35,0.005c-0.084,0.706-0.807,2.241-1.621,3.374c-0.13,0.194-0.251,0.413-0.312,0.648 c-0.323,1.177-0.607,1.855-0.805,2.23c-0.307-0.044-0.629-0.011-0.929,0.102c-0.755,0.262-1.287,0.962-1.329,1.764 c-0.205,3.48-1.605,4.662-1.611,4.673c-0.457,0.326-0.755,0.829-0.826,1.384c-0.854,7.045-0.112,9.917-0.032,10.222l0.01-0.006 c0.121,0.375,0.346,0.739,0.597,0.99c1.162,1.105,12.252,7.262,23.952,6.78c5.375-0.225,12.743-0.526,19.677,7.42 c0.298,0.341,0.7,0.572,1.148,0.654c7.836,1.412,29.052,7.1,33.062,16.328c1.182,2.723,0.766,5.59-1.28,8.754 c-0.121,0.131-0.219,0.35-0.285,0.547c-0.009,0.065-2.199,6.921-20.217,18.419c-2.087,1.312-5.948,4.421-7.461,6.557 c-0.557,0.765-1,1.547-1.466,2.385C171.214,160.85,169.852,163.269,164.74,166.481z M9.973,141.851v39.804 c0,1.104-0.896,1.991-1.994,1.991c-1.104,0-1.996-0.887-1.996-1.991v-39.804c0-1.105,0.892-1.992,1.996-1.992 C9.089,139.854,9.973,140.746,9.973,141.851z M222.655,141.851v39.804c0,1.104-0.896,1.991-1.989,1.991 c-1.107,0-1.994-0.887-1.994-1.991v-39.804c0-1.105,0.897-1.992,1.994-1.992C221.759,139.854,222.655,140.746,222.655,141.851z M3.989,153.506v16.492c0,1.096-0.896,1.992-1.994,1.992c-1.1,0-1.996-0.896-1.996-1.992v-16.492c0-1.105,0.896-2.003,1.996-2.003 C3.086,151.503,3.989,152.39,3.989,153.506z M228.649,153.506v16.492c0,1.096-0.892,1.992-1.999,1.992 c-1.087,0-1.987-0.896-1.987-1.992v-16.492c0-1.105,0.9-2.003,1.987-2.003C227.758,151.503,228.649,152.39,228.649,153.506z M138.47,122.502c0,1.274-1.139,2.309-2.529,2.309c-1.393,0-2.522-1.039-2.522-2.309c0-1.275,1.13-2.31,2.522-2.31 C137.321,120.205,138.47,121.227,138.47,122.502z M95.463,122.502c0,1.274-1.137,2.309-2.526,2.309 c-1.396,0-2.512-1.039-2.512-2.309c0-1.275,1.116-2.31,2.512-2.31C94.333,120.205,95.463,121.227,95.463,122.502z M116.566,179.111 c0,1.317-0.971,2.374-2.152,2.374c-1.206,0-2.18-1.057-2.18-2.374c0-1.298,0.974-2.365,2.18-2.365 C115.606,176.757,116.566,177.824,116.566,179.111z M184.018,123.739c-0.364,0.306-0.812,0.46-1.285,0.46 c-0.573,0-1.147-0.252-1.53-0.724c-6.476-7.803-19.032-7.266-19.171-7.256c-1.116,0.061-2.041-0.798-2.096-1.893 c-0.065-1.105,0.801-2.044,1.894-2.098c0.58-0.028,14.709-0.621,22.44,8.698C184.976,121.78,184.854,123.027,184.018,123.739z M68.146,114.097c-0.033,1.095-0.99,2.003-2.054,1.931c-0.14-0.005-12.737-0.289-19.024,7.591 c-0.393,0.492-0.974,0.755-1.564,0.755c-0.435,0-0.877-0.143-1.242-0.438c-0.864-0.69-1.004-1.948-0.32-2.811 c7.547-9.464,21.679-9.1,22.274-9.094C67.317,112.083,68.188,113.003,68.146,114.097z"/> </g> </g>
</svg>