<?xml version="1.0" encoding="utf-8"?>
<svg viewBox="-1189.572 -411.476 414.973 842.237" xmlns="http://www.w3.org/2000/svg">
  <g transform="matrix(1, 0, 0, 1, 1091.4115071550866, -723.0149590001624)">
    <title>back-left</title>
    <g>
      <title>upper arm</title>
      <path style="fill: rgb(216, 216, 216); fill-opacity: 0; stroke: rgb(184, 45, 45);" d="M -2193.897 524.614 C -2195.43 529.075 -2195.722 567.001 -2178.043 528.82 C -2160.364 490.639 -2164.701 468.19 -2164.863 468.19 C -2165.025 468.19 -2165.024 449.262 -2165.024 449.262 C -2165.024 449.262 -2168.745 433.363 -2172.304 434.495 C -2175.863 435.627 -2188.26 463.939 -2188.26 463.939 L -2193.897 524.614 Z"/>
      <path style="fill: rgb(216, 216, 216); stroke: rgb(0, 0, 0); fill-opacity: 0; stroke-opacity: 0;" d="M -2170.604 424.391 L -2202.944 457.722 L -2211.229 529.24 L -2196.119 552.87 L -2172.379 536.368 L -2161.003 476.44 L -2170.604 424.391 Z"/>
      <path style="fill: rgb(216, 216, 216); fill-opacity: 0; stroke: rgb(184, 45, 45);" d="M -2208 514.688 C -2208.953 519.97 -2206.867 553.757 -2199.445 528.886 C -2192.023 504.015 -2198.188 475.748 -2194.468 471.219 C -2190.748 466.69 -2188.385 452.098 -2183.37 446.274 C -2178.355 440.45 -2195.115 452.938 -2195.115 452.938 L -2203.288 464.748 L -2208 514.688 Z"/>
      <path style="fill: rgb(216, 216, 216); fill-opacity: 0; stroke: rgb(184, 45, 45);" d="M -2174.196 537.006 C -2174.196 537.006 -2160.894 485.462 -2163.322 478.988"/>
    </g>
    <g transform="matrix(1, 0, 0, 1, -0.229836, 1.784267)">
      <title>lower arm</title>
      <path style="fill: rgb(216, 216, 216); fill-opacity: 0; stroke: rgb(184, 45, 45);" d="M -2175.207 546.622 C -2175.207 546.622 -2176.782 537.819 -2178.229 544.784 C -2179.676 551.749 -2186.913 553.468 -2186.913 553.468 C -2186.913 553.468 -2189.536 559.167 -2186.641 560.524 C -2183.746 561.881 -2178.862 570.746 -2178.862 570.746"/>
      <path style="fill: rgb(216, 216, 216); fill-opacity: 0; stroke: rgb(184, 45, 45);" d="M -2213.291 533.438 C -2213.291 533.438 -2208.045 553.881 -2203.16 556.414 C -2198.275 558.947 -2207.21 576.677 -2207.21 576.405 C -2207.21 576.133 -2212.477 565.912 -2212.025 563.108 C -2211.573 560.304 -2214.648 547.278 -2216.638 546.825 C -2218.628 546.372 -2213.291 533.438 -2213.291 533.438 Z"/>
      <path style="fill: rgb(216, 216, 216); fill-opacity: 0; stroke: rgb(184, 45, 45);" d="M -2218.685 551.185 C -2218.685 551.185 -2211.629 571.267 -2211.177 577.599 C -2210.725 583.931 -2210.911 611.644 -2212.178 612.006 C -2213.445 612.368 -2229.306 675.883 -2229.306 675.883 C -2229.306 675.883 -2219.175 582.473 -2222.522 567.638"/>
      <path style="fill: rgb(216, 216, 216); fill-opacity: 0; stroke: rgb(184, 45, 45);" d="M -2174.286 539.463 C -2174.286 539.463 -2181.942 586.197 -2183.603 589.673 C -2185.264 593.149 -2213.752 674.049 -2210.875 675.402 C -2207.998 676.755 -2206.132 694.575 -2206.132 694.575 C -2206.132 694.575 -2206.105 715.258 -2212.542 722.881 C -2218.979 730.504 -2221.351 750.83 -2221.351 750.83 C -2221.513 751.122 -2229.039 760.987 -2228.973 752.355 C -2228.907 743.723 -2230.416 757.29 -2230.563 757.263 C -2230.583 757.392 -2236.974 775.992 -2239.153 766.209 C -2241.332 756.426 -2244.27 769.539 -2244.693 771.839 C -2245.145 774.298 -2250.625 776.68 -2251.143 768.009 C -2251.661 759.338 -2251.611 761.636 -2251.611 761.636 C -2251.611 761.636 -2259.433 762.192 -2259.649 754.902 C -2259.865 747.612 -2258.547 711.252 -2258.69 711.252 C -2258.833 711.252 -2259.828 707.838 -2262.886 712.959 C -2265.944 718.08 -2278.393 726.474 -2280.795 715.425 C -2280.795 715.425 -2256.457 685.459 -2257.37 680.895 C -2258.283 676.331 -2243.071 670.704 -2243.071 670.704 C -2243.071 670.704 -2221.087 530.243 -2210.1 529.144"/>
      <path style="fill: rgb(216, 216, 216); fill-opacity: 0; stroke: rgb(184, 45, 45);" d="M -2226.728 587.786 C -2226.728 587.786 -2232.789 672.868 -2234.96 670.878 C -2237.131 668.888 -2231.251 609.015 -2231.251 609.015"/>
      <path style="fill: rgb(216, 216, 216); fill-opacity: 0; stroke: rgb(184, 45, 45);" d="M -2221.755 678.359 C -2221.847 678.369 -2208.748 619.84 -2209.047 614.078 C -2209.346 608.316 -2195.742 567.364 -2195.742 567.364 C -2195.742 567.364 -2180.751 568.274 -2182.804 581.256 C -2184.857 594.238 -2220.198 683.672 -2221.755 678.359 Z"/>
      <path style="fill: rgb(216, 216, 216); fill-opacity: 0; stroke: rgb(184, 45, 45);" d="M -2251.611 761.284 L -2248.232 726.212"/>
      <polygon style="fill: rgb(216, 216, 216); stroke: rgb(0, 0, 0); fill-opacity: 0; stroke-opacity: 0;" points="-2210.57 526.65 -2195.576 549.612 -2172.368 537.956 -2180.323 584.405 -2209.235 673.296 -2204.566 695.115 -2207.237 716.529 -2218.55 743.444 -2220.885 755.116 -2246.564 775.049 -2260.033 756.912 -2218.67 539.903"/>
      <path style="fill: rgb(216, 216, 216); fill-opacity: 0; stroke: rgb(184, 45, 45);" d="M -2235.253 724.948 L -2240.962 762.292"/>
      <path style="fill: rgb(216, 216, 216); fill-opacity: 0; stroke: rgb(184, 45, 45);" d="M -2229.43 750.239 L -2224.432 727.462"/>
    </g>
    <g>
      <title>shoulder</title>
      <path style="fill: rgb(216, 216, 216); stroke: rgb(184, 45, 45); fill-opacity: 0;" d="M -2176.555 378.767 C -2176.555 378.767 -2149.668 368.302 -2145.687 370.188"/>
      <polygon style="fill: rgb(216, 216, 216); stroke: rgb(0, 0, 0); fill-opacity: 0; stroke-opacity: 0;" points="-2202.87 459.962 -2170.519 425.016 -2164.637 403.045 -2135.227 384.188 -2146.645 369.483 -2184.186 379.69 -2196.469 394.914 -2206.33 413.944"/>
      <path style="fill: rgb(216, 216, 216); fill-opacity: 0; stroke: rgb(184, 45, 45);" d="M -2202.49 456.648 C -2203.297 457.38 -2170.954 429.806 -2171.09 419.09 C -2171.226 408.374 -2159.966 397.633 -2148.55 390.804 C -2139.641 385.474 -2153.472 386.961 -2163.451 379.784 C -2166.564 377.545 -2174.374 377.758 -2177.15 378.879 C -2178.828 379.043 -2216.531 395.521 -2202.49 456.648 Z"/>
    </g>
    <g>
      <title>abs</title>
      <path style="fill: rgb(216, 216, 216); fill-opacity: 0; stroke: rgb(184, 45, 45);" d="M -2145.889 572.88 C -2145.889 572.88 -2136.28 567.607 -2140.791 561.63 C -2145.302 555.653 -2145.889 572.821 -2145.889 572.88 Z"/>
      <path style="fill: rgb(216, 216, 216); fill-opacity: 0; stroke: rgb(184, 45, 45);" d="M -2150.198 600.598 C -2150.198 600.598 -2149.547 569.693 -2138.095 570.669 C -2126.643 571.645 -2150.198 600.729 -2150.198 600.598 Z"/>
      <path style="fill: rgb(216, 216, 216); fill-opacity: 0; stroke: rgb(184, 45, 45);" d="M -2134.27 581.153 C -2134.27 581.153 -2153.464 609.521 -2150.471 610.302 C -2147.478 611.083 -2141.427 607.048 -2141.427 607.113 C -2141.427 607.178 -2130.431 606.333 -2130.301 606.202 C -2130.171 606.071 -2121.843 603.014 -2124.25 596.313 C -2126.657 589.612 -2133.945 580.957 -2134.27 581.153 Z"/>
    </g>
    <g>
      <title>back</title>
      <path style="fill: rgb(216, 216, 216); fill-opacity: 0; stroke: rgb(184, 45, 45);" d="M -2145.054 372.539 C -2147.985 371.318 -2119.236 357.618 -2104.761 355.772 C -2090.286 353.926 -2080.909 316.35 -2080.572 313.467 C -2080.235 310.584 -2077.998 313.538 -2077.998 313.538 C -2078.234 312.988 -2076.919 501.201 -2075.81 512.757 C -2074.701 524.313 -2081.483 506.013 -2081.544 505.921 C -2081.544 505.921 -2102.127 457.076 -2107.454 454.637 C -2112.781 452.198 -2126.003 395.404 -2124.283 394.831 C -2122.563 394.258 -2146.706 372.999 -2145.054 372.539 Z"/>
      <path style="fill: rgb(216, 216, 216); fill-opacity: 0; stroke: rgb(184, 45, 45);" d="M -2164.614 410.437 C -2164.614 410.437 -2156.924 419.143 -2157.179 422.321 C -2157.434 425.499 -2158.45 424.863 -2160.356 421.876 C -2162.262 418.889 -2166.585 417.745 -2166.648 417.618 C -2166.711 417.491 -2169.445 410.373 -2164.614 410.437 Z"/>
      <path style="fill: rgb(216, 216, 216); fill-opacity: 0; stroke: rgb(184, 45, 45);" d="M -2167.029 421.903 C -2167.029 421.903 -2129.172 447.259 -2122.499 450.756 C -2115.826 454.253 -2138.557 458.319 -2138.557 458.319 C -2138.557 458.319 -2157.306 458.065 -2159.784 452.345 C -2162.262 446.625 -2173.893 420.568 -2167.029 421.903 Z"/>
      <path style="fill: rgb(216, 216, 216); fill-opacity: 0; stroke: rgb(184, 45, 45);" d="M -2158.152 402.734 C -2158.152 402.734 -2162.746 405.871 -2162.943 408.315 C -2163.361 413.498 -2155.098 412.98 -2154.809 421.626 C -2154.52 430.272 -2115.663 455.106 -2115.23 448.428 C -2114.797 441.75 -2119.534 438.293 -2119.606 435.445 C -2119.898 423.925 -2125.894 403.278 -2125.894 403.278 C -2125.894 403.278 -2127.509 395.384 -2130.217 392.711 C -2131.834 391.115 -2134.54 390.188 -2136.557 390.213 C -2138.574 390.238 -2151.674 396.024 -2152.696 396.745 C -2153.718 397.466 -2157.98 402.605 -2158.172 402.797"/>
      <path style="fill: rgb(216, 216, 216); fill-opacity: 0; stroke: rgb(184, 45, 45);" d="M -2075.452 525.654 C -2075.452 525.654 -2079.994 620.343 -2077.701 628.936 C -2075.408 637.529 -2083.18 632.24 -2083.248 631.934 C -2085.679 628.342 -2098.065 608.099 -2111.279 606.6 C -2124.493 605.101 -2108.218 592.392 -2107.792 590.644 C -2107.207 589.306 -2105.842 583.354 -2107.231 570.624 C -2108.62 557.894 -2077.636 505.118 -2075.452 525.654 Z"/>
      <path style="fill: rgb(216, 216, 216); fill-opacity: 0; stroke: rgb(184, 45, 45);" d="M -2087.803 513.293 C -2087.803 513.293 -2114.732 563.262 -2111.74 569.695 C -2108.748 576.128 -2113.386 594.68 -2117.126 594.68 C -2120.866 594.68 -2123.813 592.137 -2123.813 592.137 C -2123.813 592.137 -2136.276 565.955 -2136.426 565.806 C -2136.576 565.657 -2159.955 480.483 -2160.864 472.76 C -2161.773 465.037 -2164.265 455.671 -2150.788 460.344 C -2137.311 465.017 -2115.704 453.35 -2115.202 453.013 C -2112.663 451.307 -2082.118 492.959 -2087.803 513.293 Z"/>
      <path style="fill: rgb(216, 216, 216); stroke: rgb(0, 0, 0); fill-opacity: 0; stroke-opacity: 0;" d="M -2075.348 641.519 L -2110.507 610.99 L -2153.586 611.435 L -2146.433 526.119 C -2146.38 527.239 -2168.508 431.744 -2169.637 425.811 L -2167.287 410.38 L -2150.574 394.21 L -2134.812 385.65 L -2147.685 369.897 L -2101.35 351.528 L -2087.998 337.268 L -2078.18 338.758 L -2075.348 641.519 Z"/>
    </g>
    <g>
      <title>neck</title>
      <path style="fill: rgb(216, 216, 216); fill-opacity: 0; stroke: rgb(184, 45, 45);" d="M -2090.533 318.672 C -2090.533 318.672 -2101.362 351.428 -2101.903 351.563 C -2102.444 351.698 -2090.533 337.757 -2089.315 332.884 C -2088.097 328.011 -2090.398 318.131 -2090.533 318.672 Z"/>
      <polygon style="fill: rgb(216, 216, 216); stroke: rgb(0, 0, 0); fill-opacity: 0; stroke-opacity: 0;" points="-2102.669 350.897 -2076.778 338.189 -2077.062 310.329 -2104.85 318.011"/>
      <path style="fill: rgb(216, 216, 216); fill-opacity: 0; stroke: rgb(184, 45, 45);" d="M -2103.047 318.736 C -2103.047 318.736 -2094.855 331.541 -2101.138 349.516"/>
    </g>
    <g>
      <title>upper legs</title>
      <path style="fill: rgb(216, 216, 216); fill-opacity: 0; stroke: rgb(184, 45, 45);" d="M -2150.931 613.118 C -2150.931 613.118 -2159.437 702.55 -2162.196 703.01 C -2164.955 703.47 -2167.714 760.228 -2164.035 774.022 C -2160.356 787.816 -2148.862 844.602 -2148.862 844.602 C -2148.862 844.602 -2155.299 872.909 -2153.92 875.208 C -2152.541 877.507 -2153.823 900.105 -2153.565 899.847 C -2153.307 899.589 -2123.238 844.547 -2127.421 836.459 C -2131.604 828.371 -2120.597 741.025 -2119.891 741.142 C -2119.185 741.259 -2121.058 729.174 -2129.374 734.379 C -2137.69 739.584 -2143.58 752.211 -2143.58 752.211 L -2148.757 842.883"/>
      <path style="fill: rgb(216, 216, 216); fill-opacity: 0; stroke: rgb(184, 45, 45);" d="M -2151.279 828.932 L -2149.714 754.404 C -2149.714 754.404 -2160.234 711.915 -2158.672 705.326 C -2157.11 698.737 -2162.683 703.922 -2162.683 703.922"/>
      <path style="fill: rgb(216, 216, 216); fill-opacity: 0; stroke: rgb(184, 45, 45);" d="M -2148.708 643.166 C -2148.708 643.166 -2145.182 620.8 -2136.63 615.496 C -2129.742 611.224 -2114.161 615.867 -2112.491 616.248 C -2110.821 616.629 -2108.763 616.976 -2108.759 620.509 C -2108.755 624.042 -2148.205 645.533 -2148.35 645.432 L -2148.708 643.166 Z"/>
      <path style="fill: rgb(216, 216, 216); fill-opacity: 0; stroke: rgb(184, 45, 45);" d="M -2104.228 621.94 C -2104.228 621.94 -2109.976 627.847 -2111.114 628.902 C -2112.252 629.957 -2129.243 637.861 -2137.338 642.584 C -2141.671 645.112 -2148.47 652.587 -2148.47 653.183 C -2148.47 653.779 -2153.054 660.011 -2150.788 681.118 C -2148.522 702.225 -2142.429 713.569 -2141.791 714.464 C -2141.153 715.359 -2128.074 727.438 -2125.931 728.297 C -2123.788 729.156 -2114.364 730.901 -2108.521 730.563 C -2100.503 730.099 -2087.544 725.979 -2085.08 724.72 C -2082.616 723.461 -2075.841 714.759 -2075.225 711.335 C -2074.609 707.911 -2075.281 650.337 -2076.385 650.337 C -2076.385 650.337 -2093.869 616.709 -2104.228 621.94 Z"/>
      <path style="fill: rgb(216, 216, 216); fill-opacity: 0; stroke: rgb(184, 45, 45);" d="M -2115.541 735.629 C -2115.541 735.629 -2128.781 833.609 -2125.114 837.276 C -2121.447 840.943 -2127.576 853.729 -2127.576 853.729 C -2127.576 853.729 -2127.017 882.2 -2117.266 899.32 C -2107.515 916.44 -2114.934 894.105 -2114.757 893.629 C -2114.757 893.629 -2117.363 841.669 -2109.777 840.599 C -2102.191 839.529 -2101.682 808.213 -2101.682 808.213 C -2101.682 808.213 -2097.07 766.651 -2103.582 757.792 C -2110.094 748.933 -2111.254 735.875 -2111.281 735.932 C -2111.281 735.932 -2113.381 733.232 -2115.541 735.629 Z"/>
      <polygon style="fill: rgb(216, 216, 216); stroke: rgb(0, 0, 0); fill-opacity: 0; stroke-opacity: 0;" points="-2153.818 904.495 -2137.13 880.013 -2105.862 918.61 -2093.457 859.259 -2084.12 796.625 -2075.169 742.845 -2074.315 641.103 -2110.257 609.874 -2153.506 611.995 -2165.398 760.914 -2150.482 849.303"/>
      <path style="fill: rgb(216, 216, 216); fill-opacity: 0; stroke: rgb(184, 45, 45);" d="M -2106.583 911.497 C -2104.072 909.113 -2095.701 872.05 -2097.49 862.957 C -2099.279 853.864 -2089.738 820.94 -2092.571 817.363 C -2095.404 813.786 -2096.595 787.662 -2096.595 787.662 L -2099.875 816.878 C -2099.875 816.878 -2102.26 841.474 -2107.627 841.921 C -2112.994 842.368 -2113.496 898.364 -2110.202 900.281 C -2110.202 900.281 -2108.758 913.562 -2106.583 911.497 Z"/>
      <path style="fill: rgb(216, 216, 216); fill-opacity: 0; stroke: rgb(184, 45, 45);" d="M -2099.27 760.991 L -2106.887 741.66 C -2106.887 741.66 -2111.209 733.929 -2103.249 734.042 C -2095.289 734.155 -2085.283 729.153 -2085.283 729.153 C -2085.283 729.153 -2077.664 730.29 -2078.119 736.317 C -2078.574 742.344 -2077.096 745.982 -2077.21 745.982 C -2077.324 745.982 -2082.099 764.062 -2082.099 763.948 C -2082.099 763.834 -2086.42 801.373 -2086.42 801.373 L -2091.309 811.493 C -2091.309 811.493 -2094.039 787.5 -2094.039 787.387 C -2094.039 787.274 -2094.834 774.662 -2094.834 774.549 C -2094.834 774.436 -2098.701 760.892 -2099.27 760.991 Z"/>
    </g>
    <g>
      <title>lower legs</title>
      <path style="fill: rgb(216, 216, 216); fill-opacity: 0; stroke: rgb(184, 45, 45);" d="M -2152.967 903.499 C -2152.967 903.499 -2141.893 887.259 -2141.524 887.074 C -2141.155 886.889 -2132.112 891.319 -2130.451 905.345 C -2128.79 919.371 -2131.401 959.805 -2131.005 973.685 C -2130.007 985.67 -2140.714 1016.344 -2147.989 1010.301 C -2155.264 1004.258 -2159.901 967.383 -2159.901 967.383 C -2160.065 967.465 -2159.612 935.324 -2158.77 934.903 L -2152.967 903.499 Z"/>
      <path style="fill: rgb(216, 216, 216); fill-opacity: 0; stroke: rgb(184, 45, 45);" d="M -2109.6 1019.383 C -2109.6 1019.383 -2100.718 991.496 -2100.925 990.463 C -2101.132 989.43 -2108.568 920.231 -2108.568 919.818 C -2108.568 919.405 -2121.375 897.303 -2123.647 898.955 C -2125.919 900.607 -2127.571 909.49 -2127.571 909.49 C -2127.571 909.49 -2126.126 939.442 -2126.539 939.855 C -2126.952 940.268 -2128.191 952.042 -2128.191 952.042 C -2128.191 952.042 -2127.365 965.882 -2127.365 966.089 C -2127.365 966.296 -2128.604 988.604 -2128.604 989.018 C -2128.604 989.432 -2130.876 1005.129 -2127.571 1005.129 C -2124.266 1005.129 -2126.332 1014.218 -2109.6 1019.383 Z"/>
      <path style="fill: rgb(216, 216, 216); fill-opacity: 0; stroke: rgb(184, 45, 45);" d="M -2110.633 1021.449 C -2110.633 1021.449 -2121.994 1078.874 -2119.722 1082.385 C -2117.45 1085.896 -2113.254 1036.738 -2113.254 1036.738"/>
      <path style="fill: rgb(216, 216, 216); fill-opacity: 0; stroke: rgb(184, 45, 45);" d="M -2149.044 1012.106 L -2135.151 1079.982 L -2143.834 1055.234 L -2149.045 1012.106"/>
      <polygon style="fill: rgb(216, 216, 216); stroke: rgb(0, 0, 0); fill-opacity: 0; stroke-opacity: 0;" points="-2154.862 904.232 -2137.251 878.496 -2104.472 919.089 -2099.203 993.864 -2111.798 1074.325 -2104.479 1097.004 -2110.266 1133.809 -2109.585 1153.141 -2164.219 1153.141 -2162.346 1135.171 -2146.178 1115.428 -2148.9 1094.324 -2145.497 1057.561 -2150.943 1011.204 -2161.369 973.761"/>
      <path style="fill: rgb(216, 216, 216); fill-opacity: 0; stroke: rgb(184, 45, 45);" d="M -2143.834 1058.093 C -2143.834 1058.093 -2141.519 1084.723 -2143.255 1087.038 C -2144.991 1089.353 -2147.453 1097.314 -2147.018 1097.458 C -2146.583 1097.602 -2141.953 1115.839 -2144.269 1116.418 C -2146.585 1116.997 -2161.057 1139.556 -2161.057 1139.556 C -2161.057 1139.556 -2163.951 1148.095 -2162.07 1149.398 C -2160.189 1150.701 -2160.775 1153.816 -2155.721 1150.981 C -2150.667 1148.146 -2149.886 1152.501 -2149.886 1152.501"/>
      <path style="fill: rgb(216, 216, 216); fill-opacity: 0; stroke: rgb(184, 45, 45);" d="M -2149.12 1152.219 C -2149.12 1152.219 -2145.578 1147.022 -2142.129 1152.357"/>
      <path style="fill: rgb(216, 216, 216); fill-opacity: 0; stroke: rgb(184, 45, 45);" d="M -2141.071 1152.311 C -2141.071 1152.311 -2137.438 1146.93 -2132.701 1152.173"/>
      <path style="fill: rgb(216, 216, 216); fill-opacity: 0; stroke: rgb(184, 45, 45);" d="M -2132.011 1152.403 C -2132.011 1152.403 -2124.192 1146.838 -2117.017 1152.173 C -2109.842 1157.508 -2108.555 1139.157 -2112.234 1137.042 C -2115.913 1134.927 -2110.372 1122.101 -2110.372 1122.055 C -2110.372 1122.009 -2110.832 1106.872 -2110.05 1106.964 C -2109.268 1107.056 -2107.245 1093.679 -2107.245 1093.541 C -2107.245 1093.403 -2114.328 1073.972 -2114.328 1073.972 L -2113.822 1039.779"/>
    </g>
  </g>
  <g transform="matrix(-1, 0, 0, 1, -3053.373313765029, -723.2069756031557)" style="">
    <title>back-right</title>
    <g>
      <title>upper arm</title>
      <path style="fill: rgb(216, 216, 216); fill-opacity: 0; stroke: rgb(184, 45, 45);" d="M -2193.897 524.614 C -2195.43 529.075 -2195.722 567.001 -2178.043 528.82 C -2160.364 490.639 -2164.701 468.19 -2164.863 468.19 C -2165.025 468.19 -2165.024 449.262 -2165.024 449.262 C -2165.024 449.262 -2168.745 433.363 -2172.304 434.495 C -2175.863 435.627 -2188.26 463.939 -2188.26 463.939 L -2193.897 524.614 Z"/>
      <path style="fill: rgb(216, 216, 216); stroke: rgb(0, 0, 0); fill-opacity: 0; stroke-opacity: 0;" d="M -2170.604 424.391 L -2202.944 457.722 L -2211.229 529.24 L -2196.119 552.87 L -2172.379 536.368 L -2161.003 476.44 L -2170.604 424.391 Z"/>
      <path style="fill: rgb(216, 216, 216); fill-opacity: 0; stroke: rgb(184, 45, 45);" d="M -2208 514.688 C -2208.953 519.97 -2206.867 553.757 -2199.445 528.886 C -2192.023 504.015 -2198.188 475.748 -2194.468 471.219 C -2190.748 466.69 -2188.385 452.098 -2183.37 446.274 C -2178.355 440.45 -2195.115 452.938 -2195.115 452.938 L -2203.288 464.748 L -2208 514.688 Z"/>
      <path style="fill: rgb(216, 216, 216); fill-opacity: 0; stroke: rgb(184, 45, 45);" d="M -2174.196 537.006 C -2174.196 537.006 -2160.894 485.462 -2163.322 478.988"/>
    </g>
    <g transform="matrix(1, 0, 0, 1, -0.229836, 1.784267)">
      <title>lower arm</title>
      <path style="fill: rgb(216, 216, 216); fill-opacity: 0; stroke: rgb(184, 45, 45);" d="M -2175.207 546.622 C -2175.207 546.622 -2176.782 537.819 -2178.229 544.784 C -2179.676 551.749 -2186.913 553.468 -2186.913 553.468 C -2186.913 553.468 -2189.536 559.167 -2186.641 560.524 C -2183.746 561.881 -2178.862 570.746 -2178.862 570.746"/>
      <path style="fill: rgb(216, 216, 216); fill-opacity: 0; stroke: rgb(184, 45, 45);" d="M -2213.291 533.438 C -2213.291 533.438 -2208.045 553.881 -2203.16 556.414 C -2198.275 558.947 -2207.21 576.677 -2207.21 576.405 C -2207.21 576.133 -2212.477 565.912 -2212.025 563.108 C -2211.573 560.304 -2214.648 547.278 -2216.638 546.825 C -2218.628 546.372 -2213.291 533.438 -2213.291 533.438 Z"/>
      <path style="fill: rgb(216, 216, 216); fill-opacity: 0; stroke: rgb(184, 45, 45);" d="M -2218.685 551.185 C -2218.685 551.185 -2211.629 571.267 -2211.177 577.599 C -2210.725 583.931 -2210.911 611.644 -2212.178 612.006 C -2213.445 612.368 -2229.306 675.883 -2229.306 675.883 C -2229.306 675.883 -2219.175 582.473 -2222.522 567.638"/>
      <path style="fill: rgb(216, 216, 216); fill-opacity: 0; stroke: rgb(184, 45, 45);" d="M -2174.286 539.463 C -2174.286 539.463 -2181.942 586.197 -2183.603 589.673 C -2185.264 593.149 -2213.752 674.049 -2210.875 675.402 C -2207.998 676.755 -2206.132 694.575 -2206.132 694.575 C -2206.132 694.575 -2206.105 715.258 -2212.542 722.881 C -2218.979 730.504 -2221.351 750.83 -2221.351 750.83 C -2221.513 751.122 -2229.039 760.987 -2228.973 752.355 C -2228.907 743.723 -2230.416 757.29 -2230.563 757.263 C -2230.583 757.392 -2236.974 775.992 -2239.153 766.209 C -2241.332 756.426 -2244.27 769.539 -2244.693 771.839 C -2245.145 774.298 -2250.625 776.68 -2251.143 768.009 C -2251.661 759.338 -2251.611 761.636 -2251.611 761.636 C -2251.611 761.636 -2259.433 762.192 -2259.649 754.902 C -2259.865 747.612 -2258.547 711.252 -2258.69 711.252 C -2258.833 711.252 -2259.828 707.838 -2262.886 712.959 C -2265.944 718.08 -2278.393 726.474 -2280.795 715.425 C -2280.795 715.425 -2256.457 685.459 -2257.37 680.895 C -2258.283 676.331 -2243.071 670.704 -2243.071 670.704 C -2243.071 670.704 -2221.087 530.243 -2210.1 529.144"/>
      <path style="fill: rgb(216, 216, 216); fill-opacity: 0; stroke: rgb(184, 45, 45);" d="M -2226.728 587.786 C -2226.728 587.786 -2232.789 672.868 -2234.96 670.878 C -2237.131 668.888 -2231.251 609.015 -2231.251 609.015"/>
      <path style="fill: rgb(216, 216, 216); fill-opacity: 0; stroke: rgb(184, 45, 45);" d="M -2221.755 678.359 C -2221.847 678.369 -2208.748 619.84 -2209.047 614.078 C -2209.346 608.316 -2195.742 567.364 -2195.742 567.364 C -2195.742 567.364 -2180.751 568.274 -2182.804 581.256 C -2184.857 594.238 -2220.198 683.672 -2221.755 678.359 Z"/>
      <path style="fill: rgb(216, 216, 216); fill-opacity: 0; stroke: rgb(184, 45, 45);" d="M -2251.611 761.284 L -2248.232 726.212"/>
      <polygon style="fill: rgb(216, 216, 216); stroke: rgb(0, 0, 0); fill-opacity: 0; stroke-opacity: 0;" points="-2210.57 526.65 -2195.576 549.612 -2172.368 537.956 -2180.323 584.405 -2209.235 673.296 -2204.566 695.115 -2207.237 716.529 -2218.55 743.444 -2220.885 755.116 -2246.564 775.049 -2260.033 756.912 -2218.67 539.903"/>
      <path style="fill: rgb(216, 216, 216); fill-opacity: 0; stroke: rgb(184, 45, 45);" d="M -2235.253 724.948 L -2240.962 762.292"/>
      <path style="fill: rgb(216, 216, 216); fill-opacity: 0; stroke: rgb(184, 45, 45);" d="M -2229.43 750.239 L -2224.432 727.462"/>
    </g>
    <g>
      <title>shoulder</title>
      <path style="fill: rgb(216, 216, 216); stroke: rgb(184, 45, 45); fill-opacity: 0;" d="M -2176.555 378.767 C -2176.555 378.767 -2149.668 368.302 -2145.687 370.188"/>
      <polygon style="fill: rgb(216, 216, 216); stroke: rgb(0, 0, 0); fill-opacity: 0; stroke-opacity: 0;" points="-2202.87 459.962 -2170.519 425.016 -2164.637 403.045 -2135.227 384.188 -2146.645 369.483 -2184.186 379.69 -2196.469 394.914 -2206.33 413.944"/>
      <path style="fill: rgb(216, 216, 216); fill-opacity: 0; stroke: rgb(184, 45, 45);" d="M -2202.49 456.648 C -2203.297 457.38 -2170.954 429.806 -2171.09 419.09 C -2171.226 408.374 -2159.966 397.633 -2148.55 390.804 C -2139.641 385.474 -2153.472 386.961 -2163.451 379.784 C -2166.564 377.545 -2174.374 377.758 -2177.15 378.879 C -2178.828 379.043 -2216.531 395.521 -2202.49 456.648 Z"/>
    </g>
    <g>
      <title>abs</title>
      <path style="fill: rgb(216, 216, 216); fill-opacity: 0; stroke: rgb(184, 45, 45);" d="M -2145.889 572.88 C -2145.889 572.88 -2136.28 567.607 -2140.791 561.63 C -2145.302 555.653 -2145.889 572.821 -2145.889 572.88 Z"/>
      <path style="fill: rgb(216, 216, 216); fill-opacity: 0; stroke: rgb(184, 45, 45);" d="M -2150.198 600.598 C -2150.198 600.598 -2149.547 569.693 -2138.095 570.669 C -2126.643 571.645 -2150.198 600.729 -2150.198 600.598 Z"/>
      <path style="fill: rgb(216, 216, 216); fill-opacity: 0; stroke: rgb(184, 45, 45);" d="M -2134.27 581.153 C -2134.27 581.153 -2153.464 609.521 -2150.471 610.302 C -2147.478 611.083 -2141.427 607.048 -2141.427 607.113 C -2141.427 607.178 -2130.431 606.333 -2130.301 606.202 C -2130.171 606.071 -2121.843 603.014 -2124.25 596.313 C -2126.657 589.612 -2133.945 580.957 -2134.27 581.153 Z"/>
    </g>
    <g>
      <title>back</title>
      <path style="fill: rgb(216, 216, 216); fill-opacity: 0; stroke: rgb(184, 45, 45);" d="M -2145.054 372.539 C -2147.985 371.318 -2119.236 357.618 -2104.761 355.772 C -2090.286 353.926 -2080.909 316.35 -2080.572 313.467 C -2080.235 310.584 -2077.998 313.538 -2077.998 313.538 C -2078.234 312.988 -2076.919 501.201 -2075.81 512.757 C -2074.701 524.313 -2081.483 506.013 -2081.544 505.921 C -2081.544 505.921 -2102.127 457.076 -2107.454 454.637 C -2112.781 452.198 -2126.003 395.404 -2124.283 394.831 C -2122.563 394.258 -2146.706 372.999 -2145.054 372.539 Z"/>
      <path style="fill: rgb(216, 216, 216); fill-opacity: 0; stroke: rgb(184, 45, 45);" d="M -2164.614 410.437 C -2164.614 410.437 -2156.924 419.143 -2157.179 422.321 C -2157.434 425.499 -2158.45 424.863 -2160.356 421.876 C -2162.262 418.889 -2166.585 417.745 -2166.648 417.618 C -2166.711 417.491 -2169.445 410.373 -2164.614 410.437 Z"/>
      <path style="fill: rgb(216, 216, 216); fill-opacity: 0; stroke: rgb(184, 45, 45);" d="M -2167.029 421.903 C -2167.029 421.903 -2129.172 447.259 -2122.499 450.756 C -2115.826 454.253 -2138.557 458.319 -2138.557 458.319 C -2138.557 458.319 -2157.306 458.065 -2159.784 452.345 C -2162.262 446.625 -2173.893 420.568 -2167.029 421.903 Z"/>
      <path style="fill: rgb(216, 216, 216); fill-opacity: 0; stroke: rgb(184, 45, 45);" d="M -2158.152 402.734 C -2158.152 402.734 -2162.746 405.871 -2162.943 408.315 C -2163.361 413.498 -2155.098 412.98 -2154.809 421.626 C -2154.52 430.272 -2115.663 455.106 -2115.23 448.428 C -2114.797 441.75 -2119.534 438.293 -2119.606 435.445 C -2119.898 423.925 -2125.894 403.278 -2125.894 403.278 C -2125.894 403.278 -2127.509 395.384 -2130.217 392.711 C -2131.834 391.115 -2134.54 390.188 -2136.557 390.213 C -2138.574 390.238 -2151.674 396.024 -2152.696 396.745 C -2153.718 397.466 -2157.98 402.605 -2158.172 402.797"/>
      <path style="fill: rgb(216, 216, 216); fill-opacity: 0; stroke: rgb(184, 45, 45);" d="M -2075.452 525.654 C -2075.452 525.654 -2079.994 620.343 -2077.701 628.936 C -2075.408 637.529 -2083.18 632.24 -2083.248 631.934 C -2085.679 628.342 -2098.065 608.099 -2111.279 606.6 C -2124.493 605.101 -2108.218 592.392 -2107.792 590.644 C -2107.207 589.306 -2105.842 583.354 -2107.231 570.624 C -2108.62 557.894 -2077.636 505.118 -2075.452 525.654 Z"/>
      <path style="fill: rgb(216, 216, 216); fill-opacity: 0; stroke: rgb(184, 45, 45);" d="M -2087.803 513.293 C -2087.803 513.293 -2114.732 563.262 -2111.74 569.695 C -2108.748 576.128 -2113.386 594.68 -2117.126 594.68 C -2120.866 594.68 -2123.813 592.137 -2123.813 592.137 C -2123.813 592.137 -2136.276 565.955 -2136.426 565.806 C -2136.576 565.657 -2159.955 480.483 -2160.864 472.76 C -2161.773 465.037 -2164.265 455.671 -2150.788 460.344 C -2137.311 465.017 -2115.704 453.35 -2115.202 453.013 C -2112.663 451.307 -2082.118 492.959 -2087.803 513.293 Z"/>
      <path style="fill: rgb(216, 216, 216); stroke: rgb(0, 0, 0); fill-opacity: 0; stroke-opacity: 0;" d="M -2075.348 641.519 L -2110.507 610.99 L -2153.586 611.435 L -2146.433 526.119 C -2146.38 527.239 -2168.508 431.744 -2169.637 425.811 L -2167.287 410.38 L -2150.574 394.21 L -2134.812 385.65 L -2147.685 369.897 L -2101.35 351.528 L -2087.998 337.268 L -2078.18 338.758 L -2075.348 641.519 Z"/>
    </g>
    <g>
      <title>neck</title>
      <path style="fill: rgb(216, 216, 216); fill-opacity: 0; stroke: rgb(184, 45, 45);" d="M -2090.533 318.672 C -2090.533 318.672 -2101.362 351.428 -2101.903 351.563 C -2102.444 351.698 -2090.533 337.757 -2089.315 332.884 C -2088.097 328.011 -2090.398 318.131 -2090.533 318.672 Z"/>
      <polygon style="fill: rgb(216, 216, 216); stroke: rgb(0, 0, 0); fill-opacity: 0; stroke-opacity: 0;" points="-2102.669 350.897 -2076.778 338.189 -2077.062 310.329 -2104.85 318.011"/>
      <path style="fill: rgb(216, 216, 216); fill-opacity: 0; stroke: rgb(184, 45, 45);" d="M -2103.047 318.736 C -2103.047 318.736 -2094.855 331.541 -2101.138 349.516"/>
    </g>
    <g>
      <title>upper legs</title>
      <path style="fill: rgb(216, 216, 216); fill-opacity: 0; stroke: rgb(184, 45, 45);" d="M -2150.931 613.118 C -2150.931 613.118 -2159.437 702.55 -2162.196 703.01 C -2164.955 703.47 -2167.714 760.228 -2164.035 774.022 C -2160.356 787.816 -2148.862 844.602 -2148.862 844.602 C -2148.862 844.602 -2155.299 872.909 -2153.92 875.208 C -2152.541 877.507 -2153.823 900.105 -2153.565 899.847 C -2153.307 899.589 -2123.238 844.547 -2127.421 836.459 C -2131.604 828.371 -2120.597 741.025 -2119.891 741.142 C -2119.185 741.259 -2121.058 729.174 -2129.374 734.379 C -2137.69 739.584 -2143.58 752.211 -2143.58 752.211 L -2148.757 842.883"/>
      <path style="fill: rgb(216, 216, 216); fill-opacity: 0; stroke: rgb(184, 45, 45);" d="M -2151.279 828.932 L -2149.714 754.404 C -2149.714 754.404 -2160.234 711.915 -2158.672 705.326 C -2157.11 698.737 -2162.683 703.922 -2162.683 703.922"/>
      <path style="fill: rgb(216, 216, 216); fill-opacity: 0; stroke: rgb(184, 45, 45);" d="M -2148.708 643.166 C -2148.708 643.166 -2145.182 620.8 -2136.63 615.496 C -2129.742 611.224 -2114.161 615.867 -2112.491 616.248 C -2110.821 616.629 -2108.763 616.976 -2108.759 620.509 C -2108.755 624.042 -2148.205 645.533 -2148.35 645.432 L -2148.708 643.166 Z"/>
      <path style="fill: rgb(216, 216, 216); fill-opacity: 0; stroke: rgb(184, 45, 45);" d="M -2104.228 621.94 C -2104.228 621.94 -2109.976 627.847 -2111.114 628.902 C -2112.252 629.957 -2129.243 637.861 -2137.338 642.584 C -2141.671 645.112 -2148.47 652.587 -2148.47 653.183 C -2148.47 653.779 -2153.054 660.011 -2150.788 681.118 C -2148.522 702.225 -2142.429 713.569 -2141.791 714.464 C -2141.153 715.359 -2128.074 727.438 -2125.931 728.297 C -2123.788 729.156 -2114.364 730.901 -2108.521 730.563 C -2100.503 730.099 -2087.544 725.979 -2085.08 724.72 C -2082.616 723.461 -2075.841 714.759 -2075.225 711.335 C -2074.609 707.911 -2075.281 650.337 -2076.385 650.337 C -2076.385 650.337 -2093.869 616.709 -2104.228 621.94 Z"/>
      <path style="fill: rgb(216, 216, 216); fill-opacity: 0; stroke: rgb(184, 45, 45);" d="M -2115.541 735.629 C -2115.541 735.629 -2128.781 833.609 -2125.114 837.276 C -2121.447 840.943 -2127.576 853.729 -2127.576 853.729 C -2127.576 853.729 -2127.017 882.2 -2117.266 899.32 C -2107.515 916.44 -2114.934 894.105 -2114.757 893.629 C -2114.757 893.629 -2117.363 841.669 -2109.777 840.599 C -2102.191 839.529 -2101.682 808.213 -2101.682 808.213 C -2101.682 808.213 -2097.07 766.651 -2103.582 757.792 C -2110.094 748.933 -2111.254 735.875 -2111.281 735.932 C -2111.281 735.932 -2113.381 733.232 -2115.541 735.629 Z"/>
      <polygon style="fill: rgb(216, 216, 216); stroke: rgb(0, 0, 0); fill-opacity: 0; stroke-opacity: 0;" points="-2153.818 904.495 -2137.13 880.013 -2105.862 918.61 -2093.457 859.259 -2084.12 796.625 -2075.169 742.845 -2074.315 641.103 -2110.257 609.874 -2153.506 611.995 -2165.398 760.914 -2150.482 849.303"/>
      <path style="fill: rgb(216, 216, 216); fill-opacity: 0; stroke: rgb(184, 45, 45);" d="M -2106.583 911.497 C -2104.072 909.113 -2095.701 872.05 -2097.49 862.957 C -2099.279 853.864 -2089.738 820.94 -2092.571 817.363 C -2095.404 813.786 -2096.595 787.662 -2096.595 787.662 L -2099.875 816.878 C -2099.875 816.878 -2102.26 841.474 -2107.627 841.921 C -2112.994 842.368 -2113.496 898.364 -2110.202 900.281 C -2110.202 900.281 -2108.758 913.562 -2106.583 911.497 Z"/>
      <path style="fill: rgb(216, 216, 216); fill-opacity: 0; stroke: rgb(184, 45, 45);" d="M -2099.27 760.991 L -2106.887 741.66 C -2106.887 741.66 -2111.209 733.929 -2103.249 734.042 C -2095.289 734.155 -2085.283 729.153 -2085.283 729.153 C -2085.283 729.153 -2077.664 730.29 -2078.119 736.317 C -2078.574 742.344 -2077.096 745.982 -2077.21 745.982 C -2077.324 745.982 -2082.099 764.062 -2082.099 763.948 C -2082.099 763.834 -2086.42 801.373 -2086.42 801.373 L -2091.309 811.493 C -2091.309 811.493 -2094.039 787.5 -2094.039 787.387 C -2094.039 787.274 -2094.834 774.662 -2094.834 774.549 C -2094.834 774.436 -2098.701 760.892 -2099.27 760.991 Z"/>
    </g>
    <g>
      <title>lower legs</title>
      <path style="fill: rgb(216, 216, 216); fill-opacity: 0; stroke: rgb(184, 45, 45);" d="M -2152.967 903.499 C -2152.967 903.499 -2141.893 887.259 -2141.524 887.074 C -2141.155 886.889 -2132.112 891.319 -2130.451 905.345 C -2128.79 919.371 -2131.401 959.805 -2131.005 973.685 C -2130.007 985.67 -2140.714 1016.344 -2147.989 1010.301 C -2155.264 1004.258 -2159.901 967.383 -2159.901 967.383 C -2160.065 967.465 -2159.612 935.324 -2158.77 934.903 L -2152.967 903.499 Z"/>
      <path style="fill: rgb(216, 216, 216); fill-opacity: 0; stroke: rgb(184, 45, 45);" d="M -2109.6 1019.383 C -2109.6 1019.383 -2100.718 991.496 -2100.925 990.463 C -2101.132 989.43 -2108.568 920.231 -2108.568 919.818 C -2108.568 919.405 -2121.375 897.303 -2123.647 898.955 C -2125.919 900.607 -2127.571 909.49 -2127.571 909.49 C -2127.571 909.49 -2126.126 939.442 -2126.539 939.855 C -2126.952 940.268 -2128.191 952.042 -2128.191 952.042 C -2128.191 952.042 -2127.365 965.882 -2127.365 966.089 C -2127.365 966.296 -2128.604 988.604 -2128.604 989.018 C -2128.604 989.432 -2130.876 1005.129 -2127.571 1005.129 C -2124.266 1005.129 -2126.332 1014.218 -2109.6 1019.383 Z"/>
      <path style="fill: rgb(216, 216, 216); fill-opacity: 0; stroke: rgb(184, 45, 45);" d="M -2110.633 1021.449 C -2110.633 1021.449 -2121.994 1078.874 -2119.722 1082.385 C -2117.45 1085.896 -2113.254 1036.738 -2113.254 1036.738"/>
      <path style="fill: rgb(216, 216, 216); fill-opacity: 0; stroke: rgb(184, 45, 45);" d="M -2149.044 1012.106 L -2135.151 1079.982 L -2143.834 1055.234 L -2149.045 1012.106"/>
      <polygon style="fill: rgb(216, 216, 216); stroke: rgb(0, 0, 0); fill-opacity: 0; stroke-opacity: 0;" points="-2154.862 904.232 -2137.251 878.496 -2104.472 919.089 -2099.203 993.864 -2111.798 1074.325 -2104.479 1097.004 -2110.266 1133.809 -2109.585 1153.141 -2164.219 1153.141 -2162.346 1135.171 -2146.178 1115.428 -2148.9 1094.324 -2145.497 1057.561 -2150.943 1011.204 -2161.369 973.761"/>
      <path style="fill: rgb(216, 216, 216); fill-opacity: 0; stroke: rgb(184, 45, 45);" d="M -2143.834 1058.093 C -2143.834 1058.093 -2141.519 1084.723 -2143.255 1087.038 C -2144.991 1089.353 -2147.453 1097.314 -2147.018 1097.458 C -2146.583 1097.602 -2141.953 1115.839 -2144.269 1116.418 C -2146.585 1116.997 -2161.057 1139.556 -2161.057 1139.556 C -2161.057 1139.556 -2163.951 1148.095 -2162.07 1149.398 C -2160.189 1150.701 -2160.775 1153.816 -2155.721 1150.981 C -2150.667 1148.146 -2149.886 1152.501 -2149.886 1152.501"/>
      <path style="fill: rgb(216, 216, 216); fill-opacity: 0; stroke: rgb(184, 45, 45);" d="M -2149.12 1152.219 C -2149.12 1152.219 -2145.578 1147.022 -2142.129 1152.357"/>
      <path style="fill: rgb(216, 216, 216); fill-opacity: 0; stroke: rgb(184, 45, 45);" d="M -2141.071 1152.311 C -2141.071 1152.311 -2137.438 1146.93 -2132.701 1152.173"/>
      <path style="fill: rgb(216, 216, 216); fill-opacity: 0; stroke: rgb(184, 45, 45);" d="M -2132.011 1152.403 C -2132.011 1152.403 -2124.192 1146.838 -2117.017 1152.173 C -2109.842 1157.508 -2108.555 1139.157 -2112.234 1137.042 C -2115.913 1134.927 -2110.372 1122.101 -2110.372 1122.055 C -2110.372 1122.009 -2110.832 1106.872 -2110.05 1106.964 C -2109.268 1107.056 -2107.245 1093.679 -2107.245 1093.541 C -2107.245 1093.403 -2114.328 1073.972 -2114.328 1073.972 L -2113.822 1039.779"/>
    </g>
  </g>
</svg>