<?xml version="1.0" encoding="utf-8"?>
<svg viewBox="573.65 -30.982 211.713 844.939" xmlns="http://www.w3.org/2000/svg">
  <g transform="matrix(0.9999999999999999, 0, 0, 0.9999999999999999, 3040.0422589782047, 799.0389463829915)" style="">
    <title>front-left</title>
    <!-- <g transform="matrix(1, 0, 0, 1, 189.33629, -1043.517342)" style="">
      <title>upper legs</title>
      <path style="fill: rgb(147, 51, 51); fill-opacity: 0; stroke-opacity: 0.94; stroke: rgb(127, 49, 49);" d="M -2488.068 608.55 L -2488.038 608.595 C -2488.038 608.595 -2474.639 589.337 -2477.228 578.464 C -2477.228 578.45 -2484.035 569.338 -2484.035 569.635 C -2483.727 569.125 -2485.156 573.712 -2485.251 576.594 C -2485.346 579.476 -2491.311 593.146 -2491.311 593.146 C -2491.311 593.146 -2492.975 601.208 -2488.068 608.55 Z"/>
      <path style="fill: rgb(147, 51, 51); fill-opacity: 0; stroke-opacity: 0.94; stroke: rgb(127, 49, 49);" d="M -2508.323 541.398 L -2500.573 549.613 C -2500.472 549.546 -2499.033 552.795 -2499.134 552.862 C -2499.134 552.862 -2500.004 569.132 -2500.391 568.916 C -2500.778 568.7 -2509.51 540.269 -2508.323 541.398 Z"/>
      <path style="fill: rgb(147, 51, 51); fill-opacity: 0; stroke-opacity: 0.94; stroke: rgb(127, 49, 49);" d="M -2498.054 579.002 C -2498.054 579.002 -2496.322 591.437 -2493.701 589.625 C -2491.08 587.813 -2487.995 579.889 -2487.995 579.889 L -2487.204 565.567 C -2487.204 565.567 -2495.867 554.405 -2496.454 554.875 C -2496.689 554.992 -2498.054 579.002 -2498.054 579.002 Z"/>
      <path style="fill: rgb(147, 51, 51); fill-opacity: 0; stroke-opacity: 0.94; stroke: rgb(127, 49, 49);" d="M -2468.325 737.546 C -2472.165 699.958 -2485.612 663.665 -2485.263 664.014 C -2484.914 664.363 -2497.448 623.877 -2499.129 622.868 C -2500.81 621.859 -2515.035 553.997 -2515.035 553.997 C -2515.035 553.997 -2514 549.684 -2517.247 539.284 C -2520.494 528.884 -2512.213 538.745 -2512.213 538.745 C -2512.213 538.745 -2480.968 642.788 -2479.323 641.473 C -2477.678 640.158 -2463.536 709.035 -2465.674 711.008 C -2467.812 712.981 -2467.154 744.269 -2471.101 752.656 C -2475.048 761.043 -2473.403 784.35 -2473.403 784.35 C -2473.403 784.35 -2481.119 801.599 -2483.121 803.409 C -2485.123 805.219 -2483.121 796.833 -2483.121 796.833 L -2481.882 792.815 L -2484.36 789.289 C -2484.36 789.289 -2478.26 768.232 -2473.495 764.419"/>
      <path style="fill: rgb(147, 51, 51); fill-opacity: 0; stroke-opacity: 0.94; stroke: rgb(127, 49, 49);" d="M -2462.679 709.891 C -2462.679 709.891 -2454.138 658.384 -2453.141 659.523 C -2452.144 660.662 -2449.725 623.906 -2453.711 619.493 C -2457.697 615.08 -2464.53 611.378 -2464.53 611.378 C -2464.53 611.378 -2464.388 624.618 -2464.245 624.618 C -2464.102 624.618 -2459.69 657.218 -2461.683 661.631 C -2463.676 666.044 -2470.082 684.267 -2462.679 709.891 Z"/>
      <path style="fill: rgb(147, 51, 51); fill-opacity: 0; stroke-opacity: 0.94; stroke: rgb(127, 49, 49);" d="M -2487.84 695.828 C -2488.663 694.456 -2486.925 673.685 -2485.769 671.433 C -2484.613 669.181 -2470.765 736.212 -2470.544 745.171 C -2470.323 754.13 -2494.934 788.226 -2495.814 752.698 C -2496.694 717.17 -2487.624 709.732 -2487.84 695.828 Z"/>
      <polygon style="fill: rgb(216, 216, 216); fill-opacity: 0.03; stroke-opacity: 0.28; stroke: rgb(127, 49, 49);" points="-2527.621 756.023 -2485.507 776.648 -2484.498 804.898 -2470.436 797.687 -2471.348 758.969 -2461.295 713.01 -2451.241 660.126 -2447.63 597.42 -2525.123 524.353 -2534.325 551.641 -2542.058 616.09 -2542.31 664.223 -2537.028 721.913"/>
      <path style="fill: rgb(147, 51, 51); fill-opacity: 0; stroke-opacity: 0.94; stroke: rgb(127, 49, 49);" d="M -2526.251 529.945 C -2526.251 529.945 -2522.611 520.304 -2520.84 531.421 C -2519.069 542.538 -2519.462 541.66 -2519.266 541.365 C -2519.07 541.07 -2517.593 550.433 -2519.561 554.861 C -2521.529 559.289 -2523.033 569.361 -2523.033 569.361 L -2539.827 625.488 C -2539.827 625.488 -2540.122 601.188 -2538.843 600.303 C -2537.564 599.418 -2532.055 561.75 -2531.957 561.75 C -2531.859 561.75 -2532.547 553.486 -2532.547 553.486 L -2526.251 529.945 Z"/>
      <path style="fill: rgb(147, 51, 51); fill-opacity: 0; stroke-opacity: 0.94; stroke: rgb(127, 49, 49);" d="M -2516.53 563.202 C -2516.53 563.202 -2528.185 601.344 -2527.731 605.279 C -2527.277 609.214 -2531.818 639.792 -2531.818 639.792 C -2531.818 639.792 -2533.634 687.933 -2521.373 712.607 C -2509.112 737.281 -2510.323 740.005 -2510.172 740.156 C -2510.021 740.307 -2504.723 748.784 -2500.787 737.128 C -2496.851 725.472 -2493.701 709.891 -2493.701 709.891 L -2488.526 663.259 C -2493.518 659.265 -2519.498 560.827 -2516.53 563.202 Z"/>
      <path style="fill: rgb(147, 51, 51); fill-opacity: 0; stroke-opacity: 0.94; stroke: rgb(127, 49, 49);" d="M -2530.895 607.431 C -2530.895 607.431 -2539.856 631.673 -2539.856 631.467 C -2539.856 631.261 -2541.938 663.152 -2540.288 668.517 C -2538.638 673.882 -2538.032 692.74 -2536.794 710.793 C -2535.556 728.846 -2519.077 759.93 -2519.077 759.93 C -2519.077 759.93 -2514.452 763.541 -2515.175 755.288 C -2515.898 747.035 -2518.002 727.331 -2518.002 727.331 L -2530.2 696.319 C -2530.2 696.319 -2535.091 678.633 -2535.085 662.333 C -2535.079 646.033 -2535.267 633.338 -2534.982 633.338 L -2530.895 607.431 Z"/>
    </g> -->
    <!-- <g style="" transform="matrix(0.995057, 0, 0, 0.994516, -1309.265635, -1128.356698)">
      <title>lower arms</title>
      <polygon style="fill: rgb(216, 216, 216); stroke: rgb(0, 0, 0); stroke-opacity: 0.4; paint-order: stroke; fill-rule: evenodd; fill-opacity: 0;" points="-1087.624 508.35 -1082.244 537.053 -1069.311 535.116 -1057.891 564.778 -1080.292 624.947 -1090.513 664.102 -1083.951 690.789 -1103.889 747.541 -1127.486 766.575 -1140.988 747.636 -1139.474 670.446 -1128.748 656.89 -1114.741 605.52 -1112.217 552.572"/>
      <path style="fill: rgb(216, 216, 216); stroke: rgb(0, 0, 0); fill-opacity: 0;" d="M -1102.835 642.551 L -1068.67 554.242 C -1068.67 554.242 -1067.904 536.52 -1074.206 537.318 C -1080.508 538.115 -1085.772 561.453 -1085.772 561.453 L -1106.684 639.479 C -1106.684 639.479 -1112.268 661.351 -1102.835 642.551 Z"/>
      <path style="fill: rgb(216, 216, 216); stroke: rgb(0, 0, 0); fill-opacity: 0;" d="M -1097.594 642.65 C -1097.594 642.65 -1069.085 554.662 -1065.033 553.889 C -1060.981 553.116 -1061.321 566.501 -1061.321 566.501 L -1076.784 607.979 L -1094.561 644.607 C -1094.561 644.607 -1104.139 664.741 -1097.594 642.65 Z"/>
      <path style="fill: rgb(216, 216, 216); stroke: rgb(0, 0, 0); fill-opacity: 0;" d="M -1091.585 516.2 C -1092.205 516.696 -1084.55 528.633 -1087.767 552.41 C -1090.984 576.187 -1112.1 641.464 -1111.462 641.381 C -1111.462 641.381 -1114.519 652.445 -1114.021 640.154 C -1113.523 627.863 -1112.752 613.598 -1112.752 613.598"/>
      <path style="fill: rgb(216, 216, 216); stroke: rgb(0, 0, 0); fill-opacity: 0;" d="M -1122.382 753.84 C -1122.382 753.84 -1119.187 720.158 -1117.784 719.223"/>
      <path style="fill: rgb(216, 216, 216); stroke: rgb(0, 0, 0); fill-opacity: 0;" d="M -1131.978 750.56 C -1131.978 750.56 -1130.798 721.484 -1129.473 720.47"/>
      <path style="fill: rgb(216, 216, 216); stroke: rgb(0, 0, 0); fill-opacity: 0;" d="M -1112.174 746.199 C -1112.174 746.199 -1107.421 722.03 -1106.33 722.03"/>
      <path style="fill: rgb(216, 216, 216); stroke: rgb(0, 0, 0); fill-opacity: 0;" d="M -1079.787 536.89 C -1083.853 542.132 -1087.191 510.265 -1087.191 510.265 L -1089.073 513.335 C -1089.073 513.335 -1097.419 522.944 -1097.337 523.271 C -1097.255 523.598 -1104.374 536.636 -1104.21 537.004 C -1104.046 537.372 -1110.633 558.862 -1110.306 559.19 C -1109.979 559.518 -1112.28 610.203 -1112.525 610.571 C -1112.77 610.939 -1123.52 660.719 -1123.52 660.719 C -1123.52 660.719 -1137.992 669.003 -1137.787 669.412 C -1137.582 669.821 -1150.02 690.902 -1149.856 690.984 C -1149.692 691.066 -1162.584 705.94 -1162.584 705.94 C -1162.584 705.94 -1162.175 715.15 -1152.029 710.975 C -1141.883 706.8 -1141.352 700.905 -1141.352 700.905 C -1141.352 700.905 -1137.343 695.134 -1140.247 706.513 C -1143.151 717.892 -1141.018 735.264 -1140.665 741.979 C -1140.312 748.694 -1137.148 758.949 -1133.722 752.506 C -1132.837 750.841 -1131.975 750.047 -1131.975 750.047 C -1131.975 750.047 -1131.975 754.355 -1131.869 754.89 C -1131.837 755.396 -1129.891 768.424 -1126.163 763.207 C -1122.435 757.99 -1122.581 752.905 -1122.351 752.872 C -1122.967 750.384 -1118.603 769.011 -1114.88 757.236 C -1111.157 745.461 -1111.977 744.31 -1112.178 746.467 C -1112.178 746.467 -1108.164 750.48 -1105.075 747.022 C -1101.986 743.564 -1086.395 694.829 -1086.395 694.829 C -1086.395 694.829 -1086.879 680.959 -1087.593 680.959 C -1088.307 680.959 -1093.708 664.922 -1092.547 663.537 C -1091.386 662.152 -1077.768 615.773 -1077.813 615.505 C -1077.858 615.237 -1059.627 566.226 -1059.622 565.825 C -1059.617 565.424 -1064.459 525.31 -1079.7 537.044"/>
     </g> -->
    <!-- <g transform="matrix(0.995057, 0, 0, 0.994516, -1310.070933, -1130.180184)" style="">
      <title>upper arms</title>
      <path style="paint-order: fill markers; mix-blend-mode: darken; fill-rule: nonzero; fill: rgb(147, 51, 51); fill-opacity: 0; stroke-opacity: 0.94; stroke: rgb(127, 49, 49);" d="M -1074.511 535.697 C -1074.53 535.685 -1047.523 487.601 -1041.004 472.73"/>
      <path style="paint-order: fill markers; fill-rule: nonzero; fill: rgb(147, 51, 51); fill-opacity: 0; stroke-opacity: 0.94; stroke: rgb(127, 49, 49);" d="M -1079.864 537.923 C -1084.705 542.777 -1068.687 450.369 -1054.397 439.302 C -1054.238 439.157 -1068.99 446.067 -1082.206 469.287"/>
      <path style="paint-order: fill markers; fill-rule: nonzero; fill: rgb(147, 51, 51); fill-opacity: 0; stroke-opacity: 0.94; stroke: rgb(127, 49, 49);" d="M -1078.057 457.866 C -1078.057 458.278 -1065.059 443.267 -1065.059 442.726 C -1064.737 442.407 -1080.242 410.073 -1072.082 396.485"/>
      <polygon style="stroke-width: 1.00524px; fill: rgb(147, 51, 51); fill-opacity: 0; stroke-opacity: 0.56; stroke: rgb(127, 49, 49);" points="-1074.624 399.327 -1073.258 411.851 -1067.5 432.8 -1062.385 442.323 -1050.058 433.573 -1039.032 420.532 -1039.596 464.515 -1041.147 485.631 -1053.198 553.017 -1057.833 560.512 -1061.859 547.081 -1067.796 535.697 -1074.201 534.639 -1079.924 536.72 -1086.264 507.744 -1087.399 482.346 -1082.206 454.692 -1080.403 412.824"/>
      <path style="fill-rule: nonzero; fill: rgb(147, 51, 51); fill-opacity: 0; stroke-opacity: 0.94; stroke: rgb(127, 49, 49);" d="M -1041.096 477.481 C -1041.22 477.481 -1064.979 526.966 -1067.454 531.048 C -1069.929 535.13 -1060.6 543.346 -1058.9 556.38 C -1058.582 557.519 -1053.614 550.1 -1053.565 540.301 C -1053.54 535.286 -1053.062 528.995 -1052.661 526.767 C -1052.26 524.539 -1039.956 480.545 -1040.935 473.728 C -1041.914 466.911 -1037.865 428.145 -1041.158 424.431 C -1040.395 423.21 -1053.133 441.383 -1054.92 444.613 C -1054.92 444.613 -1079.093 502.635 -1075.127 535.555"/>
      <path style="fill-rule: nonzero; stroke-width: 1.00524px; fill: rgb(147, 51, 51); fill-opacity: 0; stroke-opacity: 0.94; stroke: rgb(127, 49, 49);" d="M -1072.124 396.593 C -1072.124 396.593 -1079.574 410.52 -1079.455 414.263 C -1079.336 418.006 -1078.171 457.74 -1078.171 457.74 C -1077.581 459.96 -1094.046 490.943 -1080.621 537.49"/>
    </g> -->
    <!-- <g style="" transform="matrix(0.995057, 0, 0, 0.994516, -980.314216, -1223.291025)">
      <title>shoulder</title>
      <path style="fill-rule: nonzero; paint-order: fill; fill: rgb(147, 51, 51); fill-opacity: 0; stroke-opacity: 0.94; stroke: rgb(127, 49, 49);" d="M -1403.716 490.484 C -1407.883 509.141 -1393.738 534.213 -1393.738 534.213 C -1393.738 534.213 -1369.894 522.436 -1371.267 499.947 C -1372.64 477.458 -1333.054 474.124 -1330.665 474.03 C -1329.519 474.483 -1357.387 460.947 -1357.221 460.781 C -1357.153 460.849 -1387.853 456.092 -1403.678 490.522"/>
      <polygon style="fill: rgb(216, 216, 216); fill-opacity: 0; stroke: rgb(127, 49, 49);" points="-1405.329 490.459 -1393.451 534.875 -1381.96 526.659 -1369.989 511.61 -1368.299 495.388 -1365.312 486.627 -1348.017 475.966 -1323.863 472.551 -1326.464 469.043 -1355.878 459.874 -1370.478 460.303 -1385.696 466.859 -1399.975 480.257"/>
    </g> -->
    <!-- <g transform="matrix(1, 0, 0, 1, 189.333545, -1043.51735)">
      <title>neck</title>
      <path style="fill: rgb(147, 51, 51); fill-opacity: 0; stroke-opacity: 0.94; stroke: rgb(127, 49, 49);" d="M -2457.358 237.777 C -2456.809 237.694 -2453.759 239.184 -2451.827 241.213 C -2451.827 241.213 -2449.747 242.357 -2452.659 251.559 C -2455.571 260.761 -2457.41 237.777 -2457.358 237.777 Z"/>
      <polygon style="fill: rgb(147, 51, 51); fill-opacity: 0; stroke-opacity: 0.94; stroke: rgb(127, 49, 49);" points="-2519.13 277.86 -2492.265 290.586 -2446.434 286.388 -2447.25 224.219 -2475.54 230.358 -2480.175 255.784"/>
      <path style="fill: rgb(147, 51, 51); fill-opacity: 0; stroke-opacity: 0.94; stroke: rgb(127, 49, 49);" d="M -2472.182 230.699 C -2472.182 230.699 -2457.613 283.443 -2457.72 283.337 C -2457.827 283.231 -2457.082 287.591 -2460.378 282.912 C -2463.674 278.233 -2474.096 250.478 -2474.096 250.478 C -2474.096 250.478 -2475.904 227.296 -2472.182 230.699 Z"/>
      <path style="fill: rgb(147, 51, 51); fill-opacity: 0; stroke-opacity: 0.94; stroke: rgb(127, 49, 49);" d="M -2475.728 257.478 C -2475.728 257.478 -2477.032 283.046 -2477.116 283.702 C -2477.2 284.358 -2481.352 286.866 -2481.455 286.92 C -2481.558 286.974 -2484.8 287.188 -2484.695 286.977 C -2485.486 286.61 -2486.177 285.082 -2486.05 284.681 C -2486.162 284.784 -2476.274 255.99 -2475.728 257.478 Z"/>
      <path style="fill: rgb(147, 51, 51); fill-opacity: 0; stroke-opacity: 0.94; stroke: rgb(127, 49, 49);" d="M -2474.321 257.572 C -2474.321 257.572 -2474.585 277.161 -2474.527 278.03 C -2474.469 278.899 -2463.56 287.334 -2463.56 287.334 C -2463.655 287.465 -2460.364 289.635 -2462.345 284.503 C -2464.326 279.371 -2474.803 255.307 -2474.321 257.572 Z"/>
    </g> -->
    <!-- <g transform="matrix(1, 0, 0, 1, 189.333545, -1043.51735)">
      <title>chest</title>
      <path style="fill: rgb(147, 51, 51); fill-opacity: 0; stroke-opacity: 0.94; stroke: rgb(127, 49, 49);" d="M -2532.134 327.44 C -2531.34 325.681 -2535.056 298.884 -2503.907 295.224 C -2472.758 291.564 -2464.178 293.637 -2464.033 293.784 C -2463.888 293.931 -2456.692 293.208 -2451.942 320.702 C -2447.192 348.196 -2454.245 370.076 -2454.245 370.076 C -2454.245 370.076 -2455.931 382.414 -2482.706 380.831 C -2509.481 379.248 -2514.662 368.164 -2514.662 368.164 C -2518.546 364.224 -2533.086 329.549 -2532.134 327.44 Z"/>
      <polygon style="fill: rgb(147, 51, 51); fill-opacity: 0; stroke-opacity: 0.26; stroke: rgb(127, 49, 49);" points="-2510.829 294.702 -2484.661 290.932 -2448.653 287.677 -2446.121 335.895 -2446.39 376.153 -2451.411 373.718 -2466.581 377.938 -2489.16 380.28 -2514.414 367.978 -2530.299 313.392 -2527.339 304.909"/>
    </g> -->
    <!-- <g transform="matrix(1, 0, 0, 1, 189.333545, -1043.51735)">
      <title>abs</title>
      <path style="fill: rgb(147, 51, 51); fill-opacity: 0; stroke-opacity: 0.94; stroke: rgb(127, 49, 49);" d="M -2487.029 425.688 C -2487.878 426.424 -2492.9 393.568 -2484.345 386.153 C -2484.345 386.153 -2480.321 383.05 -2475.324 383.356 C -2470.327 383.662 -2456.893 379.842 -2457.163 379.824 C -2457.163 379.824 -2453.204 377.711 -2450.298 390.119 C -2447.392 402.527 -2450.298 405.545 -2450.298 405.545 C -2450.298 405.545 -2484.974 426.784 -2485.085 426.784 C -2485.196 426.784 -2487.433 425.89 -2487.029 425.688 Z"/>
      <polygon style="fill: rgb(147, 51, 51); fill-opacity: 0; stroke-opacity: 0.39; stroke: rgb(127, 49, 49);" points="-2523.682 523.436 -2447.1 595.919 -2446.832 377.65 -2452.066 374.94 -2457.089 376.347 -2473.956 381.905 -2497.311 379.873 -2511.998 372.633 -2520.495 360.086 -2517.442 402.176"/>
      <path style="fill: rgb(147, 51, 51); fill-opacity: 0; stroke-opacity: 0.94; stroke: rgb(127, 49, 49);" d="M -2487.531 437.948 C -2486.661 428.484 -2456.614 411.549 -2451.775 411.948 C -2451.775 411.948 -2449.965 413 -2448.2 418.537 C -2446.435 424.074 -2449.855 445.839 -2449.855 445.839 C -2449.855 445.839 -2450.427 448.958 -2453.419 449.785 C -2456.411 450.612 -2483.931 454.641 -2483.931 454.641 C -2483.931 454.641 -2487.622 455.66 -2487.813 451.459 C -2488.004 447.258 -2487.622 438.031 -2487.531 437.948 Z"/>
      <path style="fill: rgb(147, 51, 51); fill-opacity: 0; stroke-opacity: 0.94; stroke: rgb(127, 49, 49);" d="M -2480.835 486.691 L -2454.782 487.6 C -2454.782 487.6 -2450.39 486.464 -2450.238 482.298 C -2450.086 478.132 -2446.3 455.412 -2453.722 453.897 C -2461.144 452.382 -2484.448 459.505 -2484.448 459.505 C -2484.448 459.505 -2488.048 463.228 -2488.063 463.302 C -2488.099 463.479 -2487.727 479.95 -2487.727 480.102 C -2487.727 480.254 -2486.439 486.085 -2480.835 486.691 Z"/>
      <path style="fill: rgb(147, 51, 51); fill-opacity: 0; stroke-opacity: 0.94; stroke: rgb(127, 49, 49);" d="M -2448.928 502.705 L -2449.326 586.616 C -2449.326 586.616 -2451.185 593.387 -2454.504 586.616 C -2457.823 579.845 -2467.251 571.646 -2467.251 571.513 C -2467.251 571.38 -2492.136 499.184 -2487.696 494.473 C -2483.256 489.762 -2469.375 492.188 -2469.374 492.189 C -2468.434 492.299 -2455.5 492.783 -2455.728 493.169 L -2453.569 497.128 L -2448.928 502.705 Z"/>
      <path style="fill: rgb(147, 51, 51); fill-opacity: 0; stroke-opacity: 0.94; stroke: rgb(127, 49, 49);" d="M -2511.812 403.628 C -2511.962 402.978 -2497.569 394.826 -2497.4 394.781 C -2497.231 394.736 -2494.578 396.528 -2494.654 396.757 L -2494.381 409.801 C -2494.062 409.641 -2496.846 413.019 -2497.036 413.114 C -2497.036 413.17 -2499.565 413.337 -2499.772 413.296 C -2499.979 413.255 -2511.834 407.625 -2511.629 407.368 L -2511.812 403.628 Z"/>
      <path style="fill: rgb(147, 51, 51); fill-opacity: 0; stroke-opacity: 0.94; stroke: rgb(127, 49, 49);" d="M -2511.447 412.111 C -2511.447 412.111 -2500.297 415.564 -2499.125 415.714 C -2497.953 415.864 -2496.636 417.851 -2496.544 417.942 C -2496.452 418.033 -2495.667 433.363 -2495.759 433.454 C -2495.851 433.545 -2497.309 436.099 -2499.772 434.184 C -2502.235 432.269 -2516.008 423.694 -2516.008 423.694 C -2516.008 423.694 -2518.835 422.053 -2517.102 417.036 C -2515.369 412.019 -2511.356 411.941 -2511.447 412.111 Z"/>
      <path style="fill: rgb(147, 51, 51); fill-opacity: 0; stroke-opacity: 0.94; stroke: rgb(127, 49, 49);" d="M -2517.557 387.726 C -2517.753 387.348 -2510.03 391.365 -2503.849 389.591 C -2497.668 387.817 -2499.077 393.278 -2499.12 393.235 C -2499.163 393.192 -2511.267 401.043 -2511.267 401.043 C -2511.267 401.043 -2514.824 401 -2514.867 401 C -2514.91 401 -2521.308 390.589 -2517.557 387.726 Z"/>
      <path style="fill: rgb(147, 51, 51); fill-opacity: 0; stroke-opacity: 0.94; stroke: rgb(127, 49, 49);" d="M -2514.497 428.718 L -2495.751 439.285 C -2495.751 439.285 -2493.433 441.024 -2493.701 446.04 C -2493.969 451.056 -2493.701 458.479 -2493.701 458.479 C -2493.701 458.479 -2494.432 462.292 -2498.445 459.817 C -2502.458 457.342 -2517.664 443.431 -2517.664 443.431 C -2517.664 443.431 -2521.252 425.173 -2514.497 428.718 Z"/>
      <path style="fill: rgb(147, 51, 51); fill-opacity: 0; stroke-opacity: 0.94; stroke: rgb(127, 49, 49);" d="M -2514.229 450.053 C -2514.229 450.053 -2496.706 464.766 -2496.706 464.699 C -2496.706 464.632 -2495.28 466.185 -2495.414 477.488 C -2495.548 488.791 -2516.473 466.786 -2516.473 466.786 C -2516.473 466.786 -2519.683 446.588 -2514.229 450.053 Z"/>
      <path style="fill: rgb(147, 51, 51); fill-opacity: 0; stroke-opacity: 0.94; stroke: rgb(127, 49, 49);" d="M -2518.34 468.805 L -2499.901 485.879 C -2499.327 486.327 -2495.39 495.687 -2493.701 499.765 C -2493.128 501.146 -2492.21 504.917 -2492.274 506.14 C -2492.28 507.075 -2492.416 519.04 -2493.701 522.075 C -2494.986 525.11 -2492.936 530.583 -2493.701 535.279 C -2494.466 539.975 -2499.401 545.44 -2501.95 540.059 C -2504.499 534.678 -2519.949 519.656 -2522.267 519.116 C -2524.585 518.576 -2520.894 506.762 -2520.958 502.838 C -2521.022 498.914 -2523.417 470.08 -2518.34 468.805 Z"/>
    </g> -->
    <!-- <g transform="matrix(1, 0, 0, 1, 189.333545, -1043.51735)">
      <title>lower legs</title>
      <path style="fill: rgb(147, 51, 51); fill-opacity: 0; stroke-opacity: 0.94; stroke: rgb(127, 49, 49);" d="M -2520.811 763.824 L -2524.772 759.077 L -2528.087 777.37 L -2528.255 819.839 L -2534.026 839.36 C -2534.026 839.36 -2536.579 862.523 -2535.72 863.996 C -2534.861 865.469 -2515.889 968.175 -2516.873 970.029 C -2517.857 971.883 -2518.179 989.024 -2518.179 989.024 C -2518.179 989.024 -2522.162 1001.867 -2522.075 1001.867 C -2521.988 1001.867 -2519.295 1010.066 -2519.295 1010.066 L -2519.292 1018.529 C -2519.292 1018.529 -2530.224 1038.146 -2534.822 1040.496 C -2539.42 1042.846 -2536.15 1055.413 -2536.048 1055.311 C -2535.946 1055.209 -2531.655 1057.354 -2529.305 1054.596 C -2526.955 1051.838 -2523.992 1055.719 -2523.992 1055.719 C -2523.992 1055.719 -2520.416 1051.633 -2516.942 1055.924"/>
      <path style="fill: rgb(147, 51, 51); fill-opacity: 0; stroke-opacity: 0.94; stroke: rgb(127, 49, 49);" d="M -2516.718 1055.975 C -2516.718 1055.975 -2510.992 1052.075 -2506.546 1056.066"/>
      <path style="fill: rgb(147, 51, 51); fill-opacity: 0; stroke-opacity: 0.94; stroke: rgb(127, 49, 49);" d="M -2506.123 1056.231 C -2506.304 1055.929 -2500.78 1052.114 -2493.14 1056.01 C -2485.5 1059.906 -2484.002 1040.474 -2487.396 1039.079 C -2490.79 1037.684 -2482.471 998.74 -2482.513 998.629 C -2482.555 998.518 -2485.685 982.789 -2488.487 979.3 C -2491.289 975.811 -2488.564 952.737 -2488.854 952.646 C -2489.144 952.555 -2482.977 907.906 -2481.416 907.906 C -2479.855 907.906 -2471.667 886.169 -2474.514 863.578 C -2477.361 840.987 -2483.416 824.943 -2483.416 824.943"/>
      <polygon style="fill: rgb(216, 216, 216); fill-opacity: 0; stroke: rgb(77, 29, 29);" points="-2527.024 757.361 -2486.739 777.671 -2485.278 806.89 -2470.054 799.201 -2481.768 824.432 -2472.033 867.952 -2474.896 898.159 -2483.104 920.97 -2487.756 974.655 -2480.503 1001.688 -2486.42 1056.709 -2537.767 1056.518 -2539.294 1042.393 -2520.206 1017.006 -2524.023 999.827 -2518.87 969.668 -2537.767 859.674"/>
      <path style="fill: rgb(147, 51, 51); stroke: rgb(127, 49, 49); fill-opacity: 0;" d="M -2474.971 802.646 L -2484.275 825.573 C -2515.077 891.286 -2479.852 904.196 -2480.234 903.814"/>
      <path style="fill: rgb(147, 51, 51); fill-opacity: 0; stroke-opacity: 0.94; stroke: rgb(127, 49, 49);" d="M -2482.331 906.368 C -2482.248 906.286 -2493.281 895.925 -2493.701 897.015 C -2494.961 900.281 -2491.438 953.138 -2490.29 953.959"/>
      <path style="fill: rgb(147, 51, 51); fill-opacity: 0; stroke-opacity: 0.94; stroke: rgb(127, 49, 49);" d="M -2528.126 804.959 C -2528.126 804.959 -2520.854 792.29 -2521.513 791.606 C -2522.172 790.922 -2496.267 964.119 -2498.195 966.305 C -2500.123 968.491 -2534.256 859.84 -2528.107 824.943"/>
      <path style="fill: rgb(147, 51, 51); fill-opacity: 0; stroke-opacity: 0.94; stroke: rgb(127, 49, 49);" d="M -2501.616 972.8 C -2506.43 973.65 -2540.036 844.53 -2530.788 842.864"/>
    </g> -->
    <!-- <g transform="matrix(1, 0, 0, 1, 189.333545, -1043.51735)">
      <title>back</title>
      <path style="fill: rgb(147, 51, 51); fill-opacity: 0; stroke-opacity: 0.94; stroke: rgb(127, 49, 49);" d="M -2475.752 252.321 C -2477.071 256.773 -2504.842 278.785 -2513.548 278.293 C -2522.254 277.801 -2513.846 278.29 -2514.092 278.293 C -2514.092 278.293 -2494.653 285.576 -2493.701 285.338 C -2492.749 285.1 -2489.798 286.846 -2488.449 283.353 C -2487.1 279.86 -2475.12 251.76 -2475.752 252.321 Z"/>
      <polygon style="fill: rgb(147, 51, 51); fill-opacity: 0; stroke-opacity: 0.41; stroke: rgb(127, 49, 49);" points="-2531.888 332.079 -2533.12 385.658 -2523.139 426.745 -2519.524 426.71 -2521.725 358.065"/>
      <path style="fill: rgb(147, 51, 51); fill-opacity: 0; stroke-opacity: 0.94; stroke: rgb(127, 49, 49);" d="M -2531.464 338.661 L -2519.015 394.248 C -2519.015 394.248 -2518.114 428.852 -2521.76 427.259 C -2525.406 425.666 -2532.179 385.129 -2532.179 385.129 L -2531.464 338.661 Z"/>
    </g> -->
  </g>
</svg>
