<?xml version="1.0" encoding="utf-8"?>
<svg viewBox="-1684.854 -137.086 417.621 829.524" xmlns="http://www.w3.org/2000/svg">
  <g transform="matrix(1, 0, 0, 1, 781.1126156830235, 677.4330494808631)" style="">
    <title>front-left</title>
    <g transform="matrix(1, 0, 0, 1, 189.33629, -1043.517342)" style="">
      <title>upper legs</title>
      <path style="fill: rgb(216, 216, 216); stroke: rgb(184, 45, 45); fill-opacity: 0;" d="M -2488.068 608.55 L -2488.038 608.595 C -2488.038 608.595 -2474.639 589.337 -2477.228 578.464 C -2477.228 578.45 -2484.035 569.338 -2484.035 569.635 C -2483.727 569.125 -2485.156 573.712 -2485.251 576.594 C -2485.346 579.476 -2491.311 593.146 -2491.311 593.146 C -2491.311 593.146 -2492.975 601.208 -2488.068 608.55 Z"/>
      <path style="fill: rgb(216, 216, 216); stroke: rgb(184, 45, 45); fill-opacity: 0;" d="M -2508.323 541.398 L -2500.573 549.613 C -2500.472 549.546 -2499.033 552.795 -2499.134 552.862 C -2499.134 552.862 -2500.004 569.132 -2500.391 568.916 C -2500.778 568.7 -2509.51 540.269 -2508.323 541.398 Z"/>
      <path style="fill: rgb(216, 216, 216); stroke: rgb(184, 45, 45); fill-opacity: 0;" d="M -2498.054 579.002 C -2498.054 579.002 -2496.322 591.437 -2493.701 589.625 C -2491.08 587.813 -2487.995 579.889 -2487.995 579.889 L -2487.204 565.567 C -2487.204 565.567 -2495.867 554.405 -2496.454 554.875 C -2496.689 554.992 -2498.054 579.002 -2498.054 579.002 Z"/>
      <path style="fill: rgb(216, 216, 216); stroke: rgb(184, 45, 45); fill-opacity: 0;" d="M -2468.325 737.546 C -2472.165 699.958 -2485.612 663.665 -2485.263 664.014 C -2484.914 664.363 -2497.448 623.877 -2499.129 622.868 C -2500.81 621.859 -2515.035 553.997 -2515.035 553.997 C -2515.035 553.997 -2514 549.684 -2517.247 539.284 C -2520.494 528.884 -2512.213 538.745 -2512.213 538.745 C -2512.213 538.745 -2480.968 642.788 -2479.323 641.473 C -2477.678 640.158 -2463.536 709.035 -2465.674 711.008 C -2467.812 712.981 -2467.154 744.269 -2471.101 752.656 C -2475.048 761.043 -2473.403 784.35 -2473.403 784.35 C -2473.403 784.35 -2481.119 801.599 -2483.121 803.409 C -2485.123 805.219 -2483.121 796.833 -2483.121 796.833 L -2481.882 792.815 L -2484.36 789.289 C -2484.36 789.289 -2478.26 768.232 -2473.495 764.419"/>
      <path style="fill: rgb(216, 216, 216); stroke: rgb(0, 0, 0); fill-opacity: 0; stroke-opacity: 0;" d="M -2522.485 524.182 L -2448.199 594.267 C -2448.199 594.267 -2449.807 658.607 -2449.807 658.812 C -2449.807 659.017 -2475.176 802.89 -2475.176 802.89 L -2484.759 807.106 L -2487.442 777.591 L -2525.006 758.809 C -2525.006 758.809 -2561.373 562.527 -2522.485 524.182 Z"/>
      <path style="fill: rgb(216, 216, 216); stroke: rgb(184, 45, 45); fill-opacity: 0;" d="M -2462.679 709.891 C -2462.679 709.891 -2454.138 658.384 -2453.141 659.523 C -2452.144 660.662 -2449.725 623.906 -2453.711 619.493 C -2457.697 615.08 -2464.53 611.378 -2464.53 611.378 C -2464.53 611.378 -2464.388 624.618 -2464.245 624.618 C -2464.102 624.618 -2459.69 657.218 -2461.683 661.631 C -2463.676 666.044 -2470.082 684.267 -2462.679 709.891 Z"/>
      <path style="fill: rgb(216, 216, 216); stroke: rgb(184, 45, 45); fill-opacity: 0;" d="M -2487.84 695.828 C -2488.663 694.456 -2486.925 673.685 -2485.769 671.433 C -2484.613 669.181 -2470.765 736.212 -2470.544 745.171 C -2470.323 754.13 -2494.934 788.226 -2495.814 752.698 C -2496.694 717.17 -2487.624 709.732 -2487.84 695.828 Z"/>
      <path style="fill: rgb(216, 216, 216); stroke: rgb(184, 45, 45); fill-opacity: 0;" d="M -2526.251 529.945 C -2526.251 529.945 -2522.611 520.304 -2520.84 531.421 C -2519.069 542.538 -2519.462 541.66 -2519.266 541.365 C -2519.07 541.07 -2517.593 550.433 -2519.561 554.861 C -2521.529 559.289 -2523.033 569.361 -2523.033 569.361 L -2539.827 625.488 C -2539.827 625.488 -2540.122 601.188 -2538.843 600.303 C -2537.564 599.418 -2532.055 561.75 -2531.957 561.75 C -2531.859 561.75 -2532.547 553.486 -2532.547 553.486 L -2526.251 529.945 Z"/>
      <path style="fill: rgb(216, 216, 216); stroke: rgb(184, 45, 45); fill-opacity: 0;" d="M -2516.53 563.202 C -2516.53 563.202 -2528.185 601.344 -2527.731 605.279 C -2527.277 609.214 -2531.818 639.792 -2531.818 639.792 C -2531.818 639.792 -2533.634 687.933 -2521.373 712.607 C -2509.112 737.281 -2510.323 740.005 -2510.172 740.156 C -2510.021 740.307 -2504.723 748.784 -2500.787 737.128 C -2496.851 725.472 -2493.701 709.891 -2493.701 709.891 L -2488.526 663.259 C -2493.518 659.265 -2519.498 560.827 -2516.53 563.202 Z"/>
      <path style="fill: rgb(216, 216, 216); stroke: rgb(184, 45, 45); fill-opacity: 0;" d="M -2530.895 607.431 C -2530.895 607.431 -2539.856 631.673 -2539.856 631.467 C -2539.856 631.261 -2541.938 663.152 -2540.288 668.517 C -2538.638 673.882 -2538.032 692.74 -2536.794 710.793 C -2535.556 728.846 -2519.077 759.93 -2519.077 759.93 C -2519.077 759.93 -2514.452 763.541 -2515.175 755.288 C -2515.898 747.035 -2518.002 727.331 -2518.002 727.331 L -2530.2 696.319 C -2530.2 696.319 -2535.091 678.633 -2535.085 662.333 C -2535.079 646.033 -2535.267 633.338 -2534.982 633.338 L -2530.895 607.431 Z"/>
    </g> 
    <!-- yes -->
    <g style="" transform="matrix(0.995057, 0, 0, 0.994516, -1309.265635, -1128.356698)">
      <title>lower arm</title>
      <path style="fill-rule: nonzero; paint-order: stroke markers; transform-box: fill-box; transform-origin: 50% 50%; fill: rgb(255, 71, 71); stroke: rgb(184, 45, 45); fill-opacity: 0;" d="M -1152.426 711.212 C -1152.426 711.212 -1144.246 706.076 -1141.012 700.749 C -1137.778 695.422 -1139.871 706.266 -1139.871 706.266 C -1139.871 706.266 -1140.061 727.383 -1140.251 741.46 C -1140.441 755.537 -1133.251 752.555 -1133.251 752.555 C -1134.553 753.961 -1130.845 745.671 -1132.071 756.298 C -1133.297 766.925 -1128.349 767.855 -1125.431 764.422 C -1124.605 763.647 -1122.047 748.71 -1121.135 756.535 C -1120.223 764.36 -1114.378 757.638 -1114.378 757.638 C -1114.378 757.638 -1112.047 743.546 -1110.194 746.406 C -1108.341 749.266 -1105.247 746.977 -1105.247 746.977 L -1086.261 695.217 C -1085.753 694.718 -1087.115 680.975 -1087.115 680.975 C -1087.115 680.785 -1091.931 667.817 -1091.931 667.817 C -1092.124 667.817 -1092.351 662.898 -1091.831 662.898 C -1093.136 663.551 -1078.825 615.423 -1078.528 615.274 L -1060.645 565.754 C -1059.642 563.436 -1063.307 539.785 -1070.289 535.241 C -1077.271 530.697 -1080.139 538.786 -1081.708 535.524 L -1087.102 509.359 L -1089.344 512.914 L -1097.854 522.864 L -1104.662 536.742 C -1105.46 537.54 -1111.634 560.533 -1110.719 559.164 C -1110.719 559.164 -1113.191 609.353 -1113.02 610.01 C -1112.655 612.124 -1122.448 662.464 -1123.196 660.969 L -1137.271 669.779 L -1149.627 691.59 L -1162.305 706.119 C -1162.305 706.119 -1163.27 713.875 -1152.426 711.212 Z"/>
      <path style="paint-order: stroke markers; fill: rgb(255, 71, 71); fill-rule: nonzero; stroke: rgb(184, 45, 45); transform-box: fill-box; transform-origin: 50% 50%; fill-opacity: 0;" d="M -1113.401 613.339 L -1113.463 640.75 C -1113.486 640.894 -1113.838 648.942 -1113.36 645.945 C -1113.881 647.666 -1113.071 645.856 -1111.666 641.216 L -1086.719 552.253 C -1086.719 552.253 -1088.301 518.33 -1091.265 515.31"/>
      <path style="paint-order: stroke markers; transform-box: fill-box; transform-origin: 50% 50%; fill: rgb(255, 71, 71); fill-rule: nonzero; stroke: rgb(184, 45, 45); fill-opacity: 0;" d="M -1107.231 639.73 C -1107.429 640.153 -1111.918 662.252 -1103.434 641.967 C -1094.95 621.682 -1068.526 553.464 -1068.526 553.464 C -1068.526 553.464 -1064.271 541.217 -1071.524 537.115 C -1078.777 533.013 -1086.081 561.532 -1086.081 561.532 L -1107.231 639.73 Z"/>
      <path style="paint-order: stroke markers; transform-box: fill-box; transform-origin: 50% 50%; fill: rgb(255, 71, 71); fill-rule: nonzero; stroke: rgb(184, 45, 45); fill-opacity: 0;" d="M -1061.04 566.874 C -1061.106 566.939 -1060.151 554.45 -1064.553 552.938 C -1068.955 551.426 -1098.468 641.985 -1098.468 641.985 C -1099.896 641.355 -1104.203 664.524 -1093.343 645.532 C -1082.483 626.54 -1075.874 607.922 -1075.878 607.931"/>
      <path style="paint-order: stroke markers; transform-box: fill-box; transform-origin: 50% 50%; fill: rgb(255, 71, 71); fill-rule: nonzero; stroke: rgb(184, 45, 45); fill-opacity: 0;" d="M -1132.333 750.92 C -1132.828 750.92 -1130.838 720.298 -1130.1 720.298"/>
      <path style="paint-order: stroke markers; transform-box: fill-box; transform-origin: 50% 50%; fill: rgb(255, 71, 71); fill-rule: nonzero; stroke: rgb(184, 45, 45); fill-opacity: 0;" d="M -1121.801 754.353 C -1122.239 754.616 -1118.549 719.802 -1117.043 718.899"/>
      <path style="paint-order: stroke markers; transform-box: fill-box; transform-origin: 50% 50%; fill: rgb(255, 71, 71); fill-rule: nonzero; stroke: rgb(184, 45, 45); fill-opacity: 0;" d="M -1111.322 747.141 C -1112.047 746.83 -1107.462 720.949 -1106.737 721.26"/>
    </g>
    <!-- yes -->
    <g transform="matrix(0.995057, 0, 0, 0.994516, -1310.070933, -1130.180184)" style="">
      <title>upper arm</title>
      <path style="paint-order: fill markers; mix-blend-mode: darken; fill: rgb(178, 47, 47); fill-rule: nonzero; stroke: rgb(184, 45, 45); fill-opacity: 0;" d="M -1074.511 535.697 C -1074.53 535.685 -1047.523 487.601 -1041.004 472.73"/>
      <path style="paint-order: fill markers; fill: rgb(178, 47, 47); fill-rule: nonzero; stroke: rgb(184, 45, 45); fill-opacity: 0;" d="M -1079.864 537.923 C -1084.705 542.777 -1068.687 450.369 -1054.397 439.302 C -1054.238 439.157 -1068.99 446.067 -1082.206 469.287"/>
      <path style="paint-order: fill markers; fill: rgb(178, 47, 47); fill-rule: nonzero; stroke: rgb(184, 45, 45); fill-opacity: 0;" d="M -1078.057 457.866 C -1078.057 458.278 -1065.059 443.267 -1065.059 442.726 C -1064.737 442.407 -1080.242 410.073 -1072.082 396.485"/>
      <polygon style="fill: rgb(216, 216, 216); stroke: rgb(0, 0, 0); fill-opacity: 0; stroke-width: 1.00524px; stroke-opacity: 0;" points="-1073.495 401.502 -1073.057 411.784 -1066.83 432.599 -1062.452 441.184 -1050.594 432.568 -1038.362 417.248 -1039.596 464.515 -1041.147 485.631 -1057.764 558.124 -1067.796 535.697 -1080.469 535.697 -1086.673 511.633 -1087.399 482.346 -1082.206 454.692 -1080.403 412.824"/>
      <path style="fill: rgb(216, 216, 216); fill-rule: nonzero; stroke: rgb(184, 45, 45); fill-opacity: 0;" d="M -1041.096 477.481 C -1041.22 477.481 -1064.979 526.966 -1067.454 531.048 C -1069.929 535.13 -1060.6 543.346 -1058.9 556.38 C -1058.582 557.519 -1053.614 550.1 -1053.565 540.301 C -1053.54 535.286 -1053.062 528.995 -1052.661 526.767 C -1052.26 524.539 -1039.956 480.545 -1040.935 473.728 C -1041.914 466.911 -1037.865 428.145 -1041.158 424.431 C -1040.395 423.21 -1053.133 441.383 -1054.92 444.613 C -1054.92 444.613 -1079.093 502.635 -1075.127 535.555"/>
      <path style="fill: rgb(216, 216, 216); fill-rule: nonzero; stroke: rgb(184, 45, 45); fill-opacity: 0; stroke-width: 1.00524px; stroke-opacity: 0.94;" d="M -1072.124 396.593 C -1072.124 396.593 -1079.574 410.52 -1079.455 414.263 C -1079.336 418.006 -1078.171 457.74 -1078.171 457.74 C -1077.581 459.96 -1094.046 490.943 -1080.621 537.49"/>
    </g>
    <!-- yes -->

    <g style="" transform="matrix(0.995057, 0, 0, 0.994516, -980.314216, -1223.291025)">
      <title>shoulder</title>
      <path style="fill: rgb(216, 216, 216); stroke: rgb(184, 45, 45); fill-rule: nonzero; paint-order: fill; fill-opacity: 0;" d="M -1403.716 490.484 C -1407.883 509.141 -1393.738 534.213 -1393.738 534.213 C -1393.738 534.213 -1369.894 522.436 -1371.267 499.947 C -1372.64 477.458 -1333.054 474.124 -1330.665 474.03 C -1329.519 474.483 -1357.387 460.947 -1357.221 460.781 C -1357.153 460.849 -1387.853 456.092 -1403.678 490.522"/>
    </g>

    <!-- yes -->
    
    <g transform="matrix(1, 0, 0, 1, 189.333545, -1043.51735)">
      <title>neck</title>
      <path style="fill: rgb(216, 216, 216); stroke: rgb(184, 45, 45); fill-opacity: 0;" d="M -2457.358 237.777 C -2456.809 237.694 -2453.759 239.184 -2451.827 241.213 C -2451.827 241.213 -2449.747 242.357 -2452.659 251.559 C -2455.571 260.761 -2457.41 237.777 -2457.358 237.777 Z"/>
      <polygon style="fill: rgb(216, 216, 216); stroke: rgb(0, 0, 0); fill-opacity: 0; stroke-opacity: 0;" points="-2519.13 277.86 -2492.951 291.012 -2453.37 288.632 -2447.25 224.219 -2475.54 230.358 -2480.175 255.784"/>
      <path style="fill: rgb(216, 216, 216); stroke: rgb(184, 45, 45); fill-opacity: 0;" d="M -2472.182 230.699 C -2472.182 230.699 -2457.613 283.443 -2457.72 283.337 C -2457.827 283.231 -2457.082 287.591 -2460.378 282.912 C -2463.674 278.233 -2474.096 250.478 -2474.096 250.478 C -2474.096 250.478 -2475.904 227.296 -2472.182 230.699 Z"/>
      <path style="fill: rgb(216, 216, 216); stroke: rgb(184, 45, 45); fill-opacity: 0;" d="M -2475.728 257.478 C -2475.728 257.478 -2477.032 283.046 -2477.116 283.702 C -2477.2 284.358 -2481.352 286.866 -2481.455 286.92 C -2481.558 286.974 -2484.8 287.188 -2484.695 286.977 C -2485.486 286.61 -2486.177 285.082 -2486.05 284.681 C -2486.162 284.784 -2476.274 255.99 -2475.728 257.478 Z"/>
      <path style="fill: rgb(216, 216, 216); stroke: rgb(184, 45, 45); fill-opacity: 0;" d="M -2474.321 257.572 C -2474.321 257.572 -2474.585 277.161 -2474.527 278.03 C -2474.469 278.899 -2463.56 287.334 -2463.56 287.334 C -2463.655 287.465 -2460.364 289.635 -2462.345 284.503 C -2464.326 279.371 -2474.803 255.307 -2474.321 257.572 Z"/>
    </g>
    <!-- yes -->

    <g transform="matrix(1, 0, 0, 1, 189.333545, -1043.51735)">
      <title>chest</title>
      <path style="fill: rgb(216, 216, 216); stroke: rgb(184, 45, 45); fill-opacity: 0;" d="M -2532.134 327.44 C -2531.34 325.681 -2535.056 298.884 -2503.907 295.224 C -2472.758 291.564 -2464.178 293.637 -2464.033 293.784 C -2463.888 293.931 -2456.692 293.208 -2451.942 320.702 C -2447.192 348.196 -2454.245 370.076 -2454.245 370.076 C -2454.245 370.076 -2455.931 382.414 -2482.706 380.831 C -2509.481 379.248 -2514.662 368.164 -2514.662 368.164 C -2518.546 364.224 -2533.086 329.549 -2532.134 327.44 Z"/>
      <polygon style="fill: rgb(216, 216, 216); stroke: rgb(0, 0, 0); fill-opacity: 0; stroke-opacity: 0;" points="-2510.829 294.702 -2445.759 288.273 -2443.504 379.533 -2516.625 378.781 -2534.294 326.149 -2527.339 304.909"/>
    </g>
    <!-- yes -->

    <g transform="matrix(1, 0, 0, 1, 189.333545, -1043.51735)">
      <title>abs</title>
      <path style="fill: rgb(216, 216, 216); stroke: rgb(184, 45, 45); fill-opacity: 0;" d="M -2487.029 425.688 C -2487.878 426.424 -2492.9 393.568 -2484.345 386.153 C -2484.345 386.153 -2480.321 383.05 -2475.324 383.356 C -2470.327 383.662 -2456.893 379.842 -2457.163 379.824 C -2457.163 379.824 -2453.204 377.711 -2450.298 390.119 C -2447.392 402.527 -2450.298 405.545 -2450.298 405.545 C -2450.298 405.545 -2484.974 426.784 -2485.085 426.784 C -2485.196 426.784 -2487.433 425.89 -2487.029 425.688 Z"/>
      <polygon style="fill: rgb(216, 216, 216); stroke: rgb(0, 0, 0); stroke-opacity: 0; fill-opacity: 0;" points="-2523.682 523.436 -2447.25 596.22 -2447.694 349.039 -2457.828 376.07 -2473.402 381.721 -2494.356 379.688 -2511.813 372.079 -2520.68 357.962 -2517.442 402.176"/>
      <path style="fill: rgb(216, 216, 216); stroke: rgb(184, 45, 45); fill-opacity: 0;" d="M -2487.531 437.948 C -2486.661 428.484 -2456.614 411.549 -2451.775 411.948 C -2451.775 411.948 -2449.965 413 -2448.2 418.537 C -2446.435 424.074 -2449.855 445.839 -2449.855 445.839 C -2449.855 445.839 -2450.427 448.958 -2453.419 449.785 C -2456.411 450.612 -2483.931 454.641 -2483.931 454.641 C -2483.931 454.641 -2487.622 455.66 -2487.813 451.459 C -2488.004 447.258 -2487.622 438.031 -2487.531 437.948 Z"/>
      <path style="fill: rgb(216, 216, 216); stroke: rgb(184, 45, 45); fill-opacity: 0;" d="M -2480.835 486.691 L -2454.782 487.6 C -2454.782 487.6 -2450.39 486.464 -2450.238 482.298 C -2450.086 478.132 -2446.3 455.412 -2453.722 453.897 C -2461.144 452.382 -2484.448 459.505 -2484.448 459.505 C -2484.448 459.505 -2488.048 463.228 -2488.063 463.302 C -2488.099 463.479 -2487.727 479.95 -2487.727 480.102 C -2487.727 480.254 -2486.439 486.085 -2480.835 486.691 Z"/>
      <path style="fill: rgb(216, 216, 216); stroke: rgb(184, 45, 45); fill-opacity: 0;" d="M -2448.928 502.705 L -2449.326 586.616 C -2449.326 586.616 -2451.185 593.387 -2454.504 586.616 C -2457.823 579.845 -2467.251 571.646 -2467.251 571.513 C -2467.251 571.38 -2492.136 499.184 -2487.696 494.473 C -2483.256 489.762 -2469.375 492.188 -2469.374 492.189 C -2468.434 492.299 -2455.5 492.783 -2455.728 493.169 L -2453.569 497.128 L -2448.928 502.705 Z"/>
      <path style="fill: rgb(216, 216, 216); stroke: rgb(184, 45, 45); fill-opacity: 0;" d="M -2511.812 403.628 C -2511.962 402.978 -2497.569 394.826 -2497.4 394.781 C -2497.231 394.736 -2494.578 396.528 -2494.654 396.757 L -2494.381 409.801 C -2494.062 409.641 -2496.846 413.019 -2497.036 413.114 C -2497.036 413.17 -2499.565 413.337 -2499.772 413.296 C -2499.979 413.255 -2511.834 407.625 -2511.629 407.368 L -2511.812 403.628 Z"/>
      <path style="fill: rgb(216, 216, 216); stroke: rgb(184, 45, 45); fill-opacity: 0;" d="M -2511.447 412.111 C -2511.447 412.111 -2500.297 415.564 -2499.125 415.714 C -2497.953 415.864 -2496.636 417.851 -2496.544 417.942 C -2496.452 418.033 -2495.667 433.363 -2495.759 433.454 C -2495.851 433.545 -2497.309 436.099 -2499.772 434.184 C -2502.235 432.269 -2516.008 423.694 -2516.008 423.694 C -2516.008 423.694 -2518.835 422.053 -2517.102 417.036 C -2515.369 412.019 -2511.356 411.941 -2511.447 412.111 Z"/>
      <path style="fill: rgb(216, 216, 216); stroke: rgb(184, 45, 45); fill-opacity: 0;" d="M -2517.557 387.726 C -2517.753 387.348 -2510.03 391.365 -2503.849 389.591 C -2497.668 387.817 -2499.077 393.278 -2499.12 393.235 C -2499.163 393.192 -2511.267 401.043 -2511.267 401.043 C -2511.267 401.043 -2514.824 401 -2514.867 401 C -2514.91 401 -2521.308 390.589 -2517.557 387.726 Z"/>
      <path style="fill: rgb(216, 216, 216); stroke: rgb(184, 45, 45); fill-opacity: 0;" d="M -2514.497 428.718 L -2495.751 439.285 C -2495.751 439.285 -2493.433 441.024 -2493.701 446.04 C -2493.969 451.056 -2493.701 458.479 -2493.701 458.479 C -2493.701 458.479 -2494.432 462.292 -2498.445 459.817 C -2502.458 457.342 -2517.664 443.431 -2517.664 443.431 C -2517.664 443.431 -2521.252 425.173 -2514.497 428.718 Z"/>
      <path style="fill: rgb(216, 216, 216); stroke: rgb(184, 45, 45); fill-opacity: 0;" d="M -2514.229 450.053 C -2514.229 450.053 -2496.706 464.766 -2496.706 464.699 C -2496.706 464.632 -2495.28 466.185 -2495.414 477.488 C -2495.548 488.791 -2516.473 466.786 -2516.473 466.786 C -2516.473 466.786 -2519.683 446.588 -2514.229 450.053 Z"/>
      <path style="fill: rgb(216, 216, 216); stroke: rgb(184, 45, 45); fill-opacity: 0;" d="M -2518.34 468.805 L -2499.901 485.879 C -2499.327 486.327 -2495.39 495.687 -2493.701 499.765 C -2493.128 501.146 -2492.21 504.917 -2492.274 506.14 C -2492.28 507.075 -2492.416 519.04 -2493.701 522.075 C -2494.986 525.11 -2492.936 530.583 -2493.701 535.279 C -2494.466 539.975 -2499.401 545.44 -2501.95 540.059 C -2504.499 534.678 -2519.949 519.656 -2522.267 519.116 C -2524.585 518.576 -2520.894 506.762 -2520.958 502.838 C -2521.022 498.914 -2523.417 470.08 -2518.34 468.805 Z"/>
    </g>
    <!-- yes -->

    <g transform="matrix(1, 0, 0, 1, 189.333545, -1043.51735)">
      <title>lower legs</title>
      <path style="fill: rgb(216, 216, 216); stroke: rgb(184, 45, 45); fill-opacity: 0;" d="M -2524.772 751.097 L -2524.772 759.077 L -2528.087 777.37 L -2528.255 819.839 L -2534.026 839.36 C -2534.026 839.36 -2536.579 862.523 -2535.72 863.996 C -2534.861 865.469 -2515.889 968.175 -2516.873 970.029 C -2517.857 971.883 -2518.179 989.024 -2518.179 989.024 C -2518.179 989.024 -2522.162 1001.867 -2522.075 1001.867 C -2521.988 1001.867 -2519.295 1010.066 -2519.295 1010.066 L -2519.292 1018.529 C -2519.292 1018.529 -2530.224 1038.146 -2534.822 1040.496 C -2539.42 1042.846 -2536.15 1055.413 -2536.048 1055.311 C -2535.946 1055.209 -2531.655 1057.354 -2529.305 1054.596 C -2526.955 1051.838 -2523.992 1055.719 -2523.992 1055.719 C -2523.992 1055.719 -2520.416 1051.633 -2516.942 1055.924"/>
      <polygon style="fill: rgb(216, 216, 216); stroke: rgb(0, 0, 0); fill-opacity: 0; stroke-opacity: 0;" points="-2524.46 758.454 -2486.755 777.141 -2484.523 806.412 -2474.352 801.947 -2482.016 824.337 -2473.02 862.266 -2473.395 895.862 -2487.826 951.784 -2481.103 1000.678 -2485.601 1057.421 -2537.33 1056.671 -2538.829 1041.677 -2520.274 1016.188 -2523.835 999.695 -2518.962 968.724 -2538.079 859.364 -2530.957 813.75"/>
      <path style="fill: rgb(216, 216, 216); stroke: rgb(184, 45, 45); fill-opacity: 0;" d="M -2516.718 1055.975 C -2516.718 1055.975 -2510.992 1052.075 -2506.546 1056.066"/>
      <path style="fill: rgb(216, 216, 216); stroke: rgb(184, 45, 45); fill-opacity: 0;" d="M -2506.123 1056.231 C -2506.304 1055.929 -2500.78 1052.114 -2493.14 1056.01 C -2485.5 1059.906 -2484.002 1040.474 -2487.396 1039.079 C -2490.79 1037.684 -2482.471 998.74 -2482.513 998.629 C -2482.555 998.518 -2485.685 982.789 -2488.487 979.3 C -2491.289 975.811 -2488.564 952.737 -2488.854 952.646 C -2489.144 952.555 -2482.977 907.906 -2481.416 907.906 C -2479.855 907.906 -2471.667 886.169 -2474.514 863.578 C -2477.361 840.987 -2483.416 824.943 -2483.416 824.943"/>
      <path style="fill: rgb(216, 216, 216); stroke: rgb(184, 45, 45); fill-opacity: 0;" d="M -2475.55 792.322 L -2484.275 825.573 C -2515.077 891.286 -2479.852 904.196 -2480.234 903.814"/>
      <path style="fill: rgb(216, 216, 216); stroke: rgb(184, 45, 45); fill-opacity: 0;" d="M -2482.331 906.368 C -2482.248 906.286 -2493.281 895.925 -2493.701 897.015 C -2494.961 900.281 -2491.438 953.138 -2490.29 953.959"/>
      <path style="fill: rgb(216, 216, 216); stroke: rgb(184, 45, 45); fill-opacity: 0;" d="M -2528.126 804.959 C -2528.126 804.959 -2520.854 792.29 -2521.513 791.606 C -2522.172 790.922 -2496.267 964.119 -2498.195 966.305 C -2500.123 968.491 -2534.256 859.84 -2528.107 824.943"/>
      <path style="fill: rgb(216, 216, 216); stroke: rgb(184, 45, 45); fill-opacity: 0;" d="M -2501.616 972.8 C -2506.43 973.65 -2540.036 844.53 -2530.788 842.864"/>
    </g>
    <!-- yes -->

    <g transform="matrix(1, 0, 0, 1, 189.333545, -1043.51735)">
      <title>back</title>
      <path style="fill: rgb(216, 216, 216); stroke: rgb(184, 45, 45); fill-opacity: 0;" d="M -2475.752 252.321 C -2477.071 256.773 -2504.842 278.785 -2513.548 278.293 C -2522.254 277.801 -2513.846 278.29 -2514.092 278.293 C -2514.092 278.293 -2494.653 285.576 -2493.701 285.338 C -2492.749 285.1 -2489.798 286.846 -2488.449 283.353 C -2487.1 279.86 -2475.12 251.76 -2475.752 252.321 Z"/>
      <polygon style="fill: rgb(216, 216, 216); stroke: rgb(0, 0, 0); stroke-opacity: 0; fill-opacity: 0;" points="-2532.645 328.546 -2533.12 385.658 -2523.139 426.745 -2517.664 426.784 -2521.356 354.926"/>
      <path style="fill: rgb(216, 216, 216); stroke: rgb(184, 45, 45); fill-opacity: 0;" d="M -2531.464 338.661 L -2519.015 394.248 C -2519.015 394.248 -2518.114 428.852 -2521.76 427.259 C -2525.406 425.666 -2532.179 385.129 -2532.179 385.129 L -2531.464 338.661 Z"/>
    </g>
  </g>
    <!-- yes -->

  <g transform="matrix(-1, 0, 0, 1, -3733.638211411522, 677.1942189126776)" style="">
    <title>front-right</title>
    <g transform="matrix(1, 0, 0, 1, 189.33629, -1043.517342)" style="">
      <title>upper legs</title>
      <path style="fill: rgb(216, 216, 216); stroke: rgb(184, 45, 45); fill-opacity: 0;" d="M -2488.068 608.55 L -2488.038 608.595 C -2488.038 608.595 -2474.639 589.337 -2477.228 578.464 C -2477.228 578.45 -2484.035 569.338 -2484.035 569.635 C -2483.727 569.125 -2485.156 573.712 -2485.251 576.594 C -2485.346 579.476 -2491.311 593.146 -2491.311 593.146 C -2491.311 593.146 -2492.975 601.208 -2488.068 608.55 Z"/>
      <path style="fill: rgb(216, 216, 216); stroke: rgb(184, 45, 45); fill-opacity: 0;" d="M -2508.323 541.398 L -2500.573 549.613 C -2500.472 549.546 -2499.033 552.795 -2499.134 552.862 C -2499.134 552.862 -2500.004 569.132 -2500.391 568.916 C -2500.778 568.7 -2509.51 540.269 -2508.323 541.398 Z"/>
      <path style="fill: rgb(216, 216, 216); stroke: rgb(184, 45, 45); fill-opacity: 0;" d="M -2498.054 579.002 C -2498.054 579.002 -2496.322 591.437 -2493.701 589.625 C -2491.08 587.813 -2487.995 579.889 -2487.995 579.889 L -2487.204 565.567 C -2487.204 565.567 -2495.867 554.405 -2496.454 554.875 C -2496.689 554.992 -2498.054 579.002 -2498.054 579.002 Z"/>
      <path style="fill: rgb(216, 216, 216); stroke: rgb(184, 45, 45); fill-opacity: 0;" d="M -2468.325 737.546 C -2472.165 699.958 -2485.612 663.665 -2485.263 664.014 C -2484.914 664.363 -2497.448 623.877 -2499.129 622.868 C -2500.81 621.859 -2515.035 553.997 -2515.035 553.997 C -2515.035 553.997 -2514 549.684 -2517.247 539.284 C -2520.494 528.884 -2512.213 538.745 -2512.213 538.745 C -2512.213 538.745 -2480.968 642.788 -2479.323 641.473 C -2477.678 640.158 -2463.536 709.035 -2465.674 711.008 C -2467.812 712.981 -2467.154 744.269 -2471.101 752.656 C -2475.048 761.043 -2473.403 784.35 -2473.403 784.35 C -2473.403 784.35 -2481.119 801.599 -2483.121 803.409 C -2485.123 805.219 -2483.121 796.833 -2483.121 796.833 L -2481.882 792.815 L -2484.36 789.289 C -2484.36 789.289 -2478.26 768.232 -2473.495 764.419"/>
      <path style="fill: rgb(216, 216, 216); stroke: rgb(0, 0, 0); fill-opacity: 0; stroke-opacity: 0;" d="M -2522.485 524.182 L -2448.199 594.267 C -2448.199 594.267 -2449.807 658.607 -2449.807 658.812 C -2449.807 659.017 -2475.176 802.89 -2475.176 802.89 L -2484.759 807.106 L -2487.442 777.591 L -2525.006 758.809 C -2525.006 758.809 -2561.373 562.527 -2522.485 524.182 Z"/>
      <path style="fill: rgb(216, 216, 216); stroke: rgb(184, 45, 45); fill-opacity: 0;" d="M -2462.679 709.891 C -2462.679 709.891 -2454.138 658.384 -2453.141 659.523 C -2452.144 660.662 -2449.725 623.906 -2453.711 619.493 C -2457.697 615.08 -2464.53 611.378 -2464.53 611.378 C -2464.53 611.378 -2464.388 624.618 -2464.245 624.618 C -2464.102 624.618 -2459.69 657.218 -2461.683 661.631 C -2463.676 666.044 -2470.082 684.267 -2462.679 709.891 Z"/>
      <path style="fill: rgb(216, 216, 216); stroke: rgb(184, 45, 45); fill-opacity: 0;" d="M -2487.84 695.828 C -2488.663 694.456 -2486.925 673.685 -2485.769 671.433 C -2484.613 669.181 -2470.765 736.212 -2470.544 745.171 C -2470.323 754.13 -2494.934 788.226 -2495.814 752.698 C -2496.694 717.17 -2487.624 709.732 -2487.84 695.828 Z"/>
      <path style="fill: rgb(216, 216, 216); stroke: rgb(184, 45, 45); fill-opacity: 0;" d="M -2526.251 529.945 C -2526.251 529.945 -2522.611 520.304 -2520.84 531.421 C -2519.069 542.538 -2519.462 541.66 -2519.266 541.365 C -2519.07 541.07 -2517.593 550.433 -2519.561 554.861 C -2521.529 559.289 -2523.033 569.361 -2523.033 569.361 L -2539.827 625.488 C -2539.827 625.488 -2540.122 601.188 -2538.843 600.303 C -2537.564 599.418 -2532.055 561.75 -2531.957 561.75 C -2531.859 561.75 -2532.547 553.486 -2532.547 553.486 L -2526.251 529.945 Z"/>
      <path style="fill: rgb(216, 216, 216); stroke: rgb(184, 45, 45); fill-opacity: 0;" d="M -2516.53 563.202 C -2516.53 563.202 -2528.185 601.344 -2527.731 605.279 C -2527.277 609.214 -2531.818 639.792 -2531.818 639.792 C -2531.818 639.792 -2533.634 687.933 -2521.373 712.607 C -2509.112 737.281 -2510.323 740.005 -2510.172 740.156 C -2510.021 740.307 -2504.723 748.784 -2500.787 737.128 C -2496.851 725.472 -2493.701 709.891 -2493.701 709.891 L -2488.526 663.259 C -2493.518 659.265 -2519.498 560.827 -2516.53 563.202 Z"/>
      <path style="fill: rgb(216, 216, 216); stroke: rgb(184, 45, 45); fill-opacity: 0;" d="M -2530.895 607.431 C -2530.895 607.431 -2539.856 631.673 -2539.856 631.467 C -2539.856 631.261 -2541.938 663.152 -2540.288 668.517 C -2538.638 673.882 -2538.032 692.74 -2536.794 710.793 C -2535.556 728.846 -2519.077 759.93 -2519.077 759.93 C -2519.077 759.93 -2514.452 763.541 -2515.175 755.288 C -2515.898 747.035 -2518.002 727.331 -2518.002 727.331 L -2530.2 696.319 C -2530.2 696.319 -2535.091 678.633 -2535.085 662.333 C -2535.079 646.033 -2535.267 633.338 -2534.982 633.338 L -2530.895 607.431 Z"/>
    </g>
    <g style="" transform="matrix(0.995057, 0, 0, 0.994516, -1309.265635, -1128.356698)">
      <title>lower arm</title>
      <path style="fill-rule: nonzero; paint-order: stroke markers; transform-box: fill-box; transform-origin: 50% 50%; fill: rgb(255, 71, 71); stroke: rgb(184, 45, 45); fill-opacity: 0;" d="M -1152.426 711.212 C -1152.426 711.212 -1144.246 706.076 -1141.012 700.749 C -1137.778 695.422 -1139.871 706.266 -1139.871 706.266 C -1139.871 706.266 -1140.061 727.383 -1140.251 741.46 C -1140.441 755.537 -1133.251 752.555 -1133.251 752.555 C -1134.553 753.961 -1130.845 745.671 -1132.071 756.298 C -1133.297 766.925 -1128.349 767.855 -1125.431 764.422 C -1124.605 763.647 -1122.047 748.71 -1121.135 756.535 C -1120.223 764.36 -1114.378 757.638 -1114.378 757.638 C -1114.378 757.638 -1112.047 743.546 -1110.194 746.406 C -1108.341 749.266 -1105.247 746.977 -1105.247 746.977 L -1086.261 695.217 C -1085.753 694.718 -1087.115 680.975 -1087.115 680.975 C -1087.115 680.785 -1091.931 667.817 -1091.931 667.817 C -1092.124 667.817 -1092.351 662.898 -1091.831 662.898 C -1093.136 663.551 -1078.825 615.423 -1078.528 615.274 L -1060.645 565.754 C -1059.642 563.436 -1063.307 539.785 -1070.289 535.241 C -1077.271 530.697 -1080.139 538.786 -1081.708 535.524 L -1087.102 509.359 L -1089.344 512.914 L -1097.854 522.864 L -1104.662 536.742 C -1105.46 537.54 -1111.634 560.533 -1110.719 559.164 C -1110.719 559.164 -1113.191 609.353 -1113.02 610.01 C -1112.655 612.124 -1122.448 662.464 -1123.196 660.969 L -1137.271 669.779 L -1149.627 691.59 L -1162.305 706.119 C -1162.305 706.119 -1163.27 713.875 -1152.426 711.212 Z"/>
      <path style="paint-order: stroke markers; fill: rgb(255, 71, 71); fill-rule: nonzero; stroke: rgb(184, 45, 45); transform-box: fill-box; transform-origin: 50% 50%; fill-opacity: 0;" d="M -1113.401 613.339 L -1113.463 640.75 C -1113.486 640.894 -1113.838 648.942 -1113.36 645.945 C -1113.881 647.666 -1113.071 645.856 -1111.666 641.216 L -1086.719 552.253 C -1086.719 552.253 -1088.301 518.33 -1091.265 515.31"/>
      <path style="paint-order: stroke markers; transform-box: fill-box; transform-origin: 50% 50%; fill: rgb(255, 71, 71); fill-rule: nonzero; stroke: rgb(184, 45, 45); fill-opacity: 0;" d="M -1107.231 639.73 C -1107.429 640.153 -1111.918 662.252 -1103.434 641.967 C -1094.95 621.682 -1068.526 553.464 -1068.526 553.464 C -1068.526 553.464 -1064.271 541.217 -1071.524 537.115 C -1078.777 533.013 -1086.081 561.532 -1086.081 561.532 L -1107.231 639.73 Z"/>
      <path style="paint-order: stroke markers; transform-box: fill-box; transform-origin: 50% 50%; fill: rgb(255, 71, 71); fill-rule: nonzero; stroke: rgb(184, 45, 45); fill-opacity: 0;" d="M -1061.04 566.874 C -1061.106 566.939 -1060.151 554.45 -1064.553 552.938 C -1068.955 551.426 -1098.468 641.985 -1098.468 641.985 C -1099.896 641.355 -1104.203 664.524 -1093.343 645.532 C -1082.483 626.54 -1075.874 607.922 -1075.878 607.931"/>
      <path style="paint-order: stroke markers; transform-box: fill-box; transform-origin: 50% 50%; fill: rgb(255, 71, 71); fill-rule: nonzero; stroke: rgb(184, 45, 45); fill-opacity: 0;" d="M -1132.333 750.92 C -1132.828 750.92 -1130.838 720.298 -1130.1 720.298"/>
      <path style="paint-order: stroke markers; transform-box: fill-box; transform-origin: 50% 50%; fill: rgb(255, 71, 71); fill-rule: nonzero; stroke: rgb(184, 45, 45); fill-opacity: 0;" d="M -1121.801 754.353 C -1122.239 754.616 -1118.549 719.802 -1117.043 718.899"/>
      <path style="paint-order: stroke markers; transform-box: fill-box; transform-origin: 50% 50%; fill: rgb(255, 71, 71); fill-rule: nonzero; stroke: rgb(184, 45, 45); fill-opacity: 0;" d="M -1111.322 747.141 C -1112.047 746.83 -1107.462 720.949 -1106.737 721.26"/>
    </g>
    <g transform="matrix(0.995057, 0, 0, 0.994516, -1310.070933, -1130.180184)" style="">
      <title>upper arm</title>
      <path style="paint-order: fill markers; mix-blend-mode: darken; fill: rgb(178, 47, 47); fill-rule: nonzero; stroke: rgb(184, 45, 45); fill-opacity: 0;" d="M -1074.511 535.697 C -1074.53 535.685 -1047.523 487.601 -1041.004 472.73"/>
      <path style="paint-order: fill markers; fill: rgb(178, 47, 47); fill-rule: nonzero; stroke: rgb(184, 45, 45); fill-opacity: 0;" d="M -1079.864 537.923 C -1084.705 542.777 -1068.687 450.369 -1054.397 439.302 C -1054.238 439.157 -1068.99 446.067 -1082.206 469.287"/>
      <path style="paint-order: fill markers; fill: rgb(178, 47, 47); fill-rule: nonzero; stroke: rgb(184, 45, 45); fill-opacity: 0;" d="M -1078.057 457.866 C -1078.057 458.278 -1065.059 443.267 -1065.059 442.726 C -1064.737 442.407 -1080.242 410.073 -1072.082 396.485"/>
      <polygon style="fill: rgb(216, 216, 216); stroke: rgb(0, 0, 0); fill-opacity: 0; stroke-width: 1.00524px; stroke-opacity: 0;" points="-1073.495 401.502 -1073.057 411.784 -1066.83 432.599 -1062.452 441.184 -1050.594 432.568 -1038.362 417.248 -1039.596 464.515 -1041.147 485.631 -1057.764 558.124 -1067.796 535.697 -1080.469 535.697 -1086.673 511.633 -1087.399 482.346 -1082.206 454.692 -1080.403 412.824"/>
      <path style="fill: rgb(216, 216, 216); fill-rule: nonzero; stroke: rgb(184, 45, 45); fill-opacity: 0;" d="M -1041.096 477.481 C -1041.22 477.481 -1064.979 526.966 -1067.454 531.048 C -1069.929 535.13 -1060.6 543.346 -1058.9 556.38 C -1058.582 557.519 -1053.614 550.1 -1053.565 540.301 C -1053.54 535.286 -1053.062 528.995 -1052.661 526.767 C -1052.26 524.539 -1039.956 480.545 -1040.935 473.728 C -1041.914 466.911 -1037.865 428.145 -1041.158 424.431 C -1040.395 423.21 -1053.133 441.383 -1054.92 444.613 C -1054.92 444.613 -1079.093 502.635 -1075.127 535.555"/>
      <path style="fill: rgb(216, 216, 216); fill-rule: nonzero; stroke: rgb(184, 45, 45); fill-opacity: 0; stroke-width: 1.00524px; stroke-opacity: 0.94;" d="M -1072.124 396.593 C -1072.124 396.593 -1079.574 410.52 -1079.455 414.263 C -1079.336 418.006 -1078.171 457.74 -1078.171 457.74 C -1077.581 459.96 -1094.046 490.943 -1080.621 537.49"/>
    </g>
    <g style="" transform="matrix(0.995057, 0, 0, 0.994516, -980.314216, -1223.291025)">
      <title>shoulder</title>
      <path style="fill: rgb(216, 216, 216); stroke: rgb(184, 45, 45); fill-rule: nonzero; paint-order: fill; fill-opacity: 0;" d="M -1403.716 490.484 C -1407.883 509.141 -1393.738 534.213 -1393.738 534.213 C -1393.738 534.213 -1369.894 522.436 -1371.267 499.947 C -1372.64 477.458 -1333.054 474.124 -1330.665 474.03 C -1329.519 474.483 -1357.387 460.947 -1357.221 460.781 C -1357.153 460.849 -1387.853 456.092 -1403.678 490.522"/>
    </g>
    <g transform="matrix(1, 0, 0, 1, 189.333545, -1043.51735)">
      <title>neck</title>
      <path style="fill: rgb(216, 216, 216); stroke: rgb(184, 45, 45); fill-opacity: 0;" d="M -2457.358 237.777 C -2456.809 237.694 -2453.759 239.184 -2451.827 241.213 C -2451.827 241.213 -2449.747 242.357 -2452.659 251.559 C -2455.571 260.761 -2457.41 237.777 -2457.358 237.777 Z"/>
      <polygon style="fill: rgb(216, 216, 216); stroke: rgb(0, 0, 0); fill-opacity: 0; stroke-opacity: 0;" points="-2519.13 277.86 -2492.951 291.012 -2453.37 288.632 -2447.25 224.219 -2475.54 230.358 -2480.175 255.784"/>
      <path style="fill: rgb(216, 216, 216); stroke: rgb(184, 45, 45); fill-opacity: 0;" d="M -2472.182 230.699 C -2472.182 230.699 -2457.613 283.443 -2457.72 283.337 C -2457.827 283.231 -2457.082 287.591 -2460.378 282.912 C -2463.674 278.233 -2474.096 250.478 -2474.096 250.478 C -2474.096 250.478 -2475.904 227.296 -2472.182 230.699 Z"/>
      <path style="fill: rgb(216, 216, 216); stroke: rgb(184, 45, 45); fill-opacity: 0;" d="M -2475.728 257.478 C -2475.728 257.478 -2477.032 283.046 -2477.116 283.702 C -2477.2 284.358 -2481.352 286.866 -2481.455 286.92 C -2481.558 286.974 -2484.8 287.188 -2484.695 286.977 C -2485.486 286.61 -2486.177 285.082 -2486.05 284.681 C -2486.162 284.784 -2476.274 255.99 -2475.728 257.478 Z"/>
      <path style="fill: rgb(216, 216, 216); stroke: rgb(184, 45, 45); fill-opacity: 0;" d="M -2474.321 257.572 C -2474.321 257.572 -2474.585 277.161 -2474.527 278.03 C -2474.469 278.899 -2463.56 287.334 -2463.56 287.334 C -2463.655 287.465 -2460.364 289.635 -2462.345 284.503 C -2464.326 279.371 -2474.803 255.307 -2474.321 257.572 Z"/>
    </g>
    <g transform="matrix(1, 0, 0, 1, 189.333545, -1043.51735)">
      <title>chest</title>
      <path style="fill: rgb(216, 216, 216); stroke: rgb(184, 45, 45); fill-opacity: 0;" d="M -2532.134 327.44 C -2531.34 325.681 -2535.056 298.884 -2503.907 295.224 C -2472.758 291.564 -2464.178 293.637 -2464.033 293.784 C -2463.888 293.931 -2456.692 293.208 -2451.942 320.702 C -2447.192 348.196 -2454.245 370.076 -2454.245 370.076 C -2454.245 370.076 -2455.931 382.414 -2482.706 380.831 C -2509.481 379.248 -2514.662 368.164 -2514.662 368.164 C -2518.546 364.224 -2533.086 329.549 -2532.134 327.44 Z"/>
      <polygon style="fill: rgb(216, 216, 216); stroke: rgb(0, 0, 0); fill-opacity: 0; stroke-opacity: 0;" points="-2510.829 294.702 -2445.759 288.273 -2443.504 379.533 -2516.625 378.781 -2534.294 326.149 -2527.339 304.909"/>
    </g>
    <g transform="matrix(1, 0, 0, 1, 189.333545, -1043.51735)">
      <title>abs</title>
      <path style="fill: rgb(216, 216, 216); stroke: rgb(184, 45, 45); fill-opacity: 0;" d="M -2487.029 425.688 C -2487.878 426.424 -2492.9 393.568 -2484.345 386.153 C -2484.345 386.153 -2480.321 383.05 -2475.324 383.356 C -2470.327 383.662 -2456.893 379.842 -2457.163 379.824 C -2457.163 379.824 -2453.204 377.711 -2450.298 390.119 C -2447.392 402.527 -2450.298 405.545 -2450.298 405.545 C -2450.298 405.545 -2484.974 426.784 -2485.085 426.784 C -2485.196 426.784 -2487.433 425.89 -2487.029 425.688 Z"/>
      <polygon style="fill: rgb(216, 216, 216); stroke: rgb(0, 0, 0); stroke-opacity: 0; fill-opacity: 0;" points="-2523.682 523.436 -2447.25 596.22 -2447.694 349.039 -2457.828 376.07 -2473.402 381.721 -2494.356 379.688 -2511.813 372.079 -2520.68 357.962 -2517.442 402.176"/>
      <path style="fill: rgb(216, 216, 216); stroke: rgb(184, 45, 45); fill-opacity: 0;" d="M -2487.531 437.948 C -2486.661 428.484 -2456.614 411.549 -2451.775 411.948 C -2451.775 411.948 -2449.965 413 -2448.2 418.537 C -2446.435 424.074 -2449.855 445.839 -2449.855 445.839 C -2449.855 445.839 -2450.427 448.958 -2453.419 449.785 C -2456.411 450.612 -2483.931 454.641 -2483.931 454.641 C -2483.931 454.641 -2487.622 455.66 -2487.813 451.459 C -2488.004 447.258 -2487.622 438.031 -2487.531 437.948 Z"/>
      <path style="fill: rgb(216, 216, 216); stroke: rgb(184, 45, 45); fill-opacity: 0;" d="M -2480.835 486.691 L -2454.782 487.6 C -2454.782 487.6 -2450.39 486.464 -2450.238 482.298 C -2450.086 478.132 -2446.3 455.412 -2453.722 453.897 C -2461.144 452.382 -2484.448 459.505 -2484.448 459.505 C -2484.448 459.505 -2488.048 463.228 -2488.063 463.302 C -2488.099 463.479 -2487.727 479.95 -2487.727 480.102 C -2487.727 480.254 -2486.439 486.085 -2480.835 486.691 Z"/>
      <path style="fill: rgb(216, 216, 216); stroke: rgb(184, 45, 45); fill-opacity: 0;" d="M -2448.928 502.705 L -2449.326 586.616 C -2449.326 586.616 -2451.185 593.387 -2454.504 586.616 C -2457.823 579.845 -2467.251 571.646 -2467.251 571.513 C -2467.251 571.38 -2492.136 499.184 -2487.696 494.473 C -2483.256 489.762 -2469.375 492.188 -2469.374 492.189 C -2468.434 492.299 -2455.5 492.783 -2455.728 493.169 L -2453.569 497.128 L -2448.928 502.705 Z"/>
      <path style="fill: rgb(216, 216, 216); stroke: rgb(184, 45, 45); fill-opacity: 0;" d="M -2511.812 403.628 C -2511.962 402.978 -2497.569 394.826 -2497.4 394.781 C -2497.231 394.736 -2494.578 396.528 -2494.654 396.757 L -2494.381 409.801 C -2494.062 409.641 -2496.846 413.019 -2497.036 413.114 C -2497.036 413.17 -2499.565 413.337 -2499.772 413.296 C -2499.979 413.255 -2511.834 407.625 -2511.629 407.368 L -2511.812 403.628 Z"/>
      <path style="fill: rgb(216, 216, 216); stroke: rgb(184, 45, 45); fill-opacity: 0;" d="M -2511.447 412.111 C -2511.447 412.111 -2500.297 415.564 -2499.125 415.714 C -2497.953 415.864 -2496.636 417.851 -2496.544 417.942 C -2496.452 418.033 -2495.667 433.363 -2495.759 433.454 C -2495.851 433.545 -2497.309 436.099 -2499.772 434.184 C -2502.235 432.269 -2516.008 423.694 -2516.008 423.694 C -2516.008 423.694 -2518.835 422.053 -2517.102 417.036 C -2515.369 412.019 -2511.356 411.941 -2511.447 412.111 Z"/>
      <path style="fill: rgb(216, 216, 216); stroke: rgb(184, 45, 45); fill-opacity: 0;" d="M -2517.557 387.726 C -2517.753 387.348 -2510.03 391.365 -2503.849 389.591 C -2497.668 387.817 -2499.077 393.278 -2499.12 393.235 C -2499.163 393.192 -2511.267 401.043 -2511.267 401.043 C -2511.267 401.043 -2514.824 401 -2514.867 401 C -2514.91 401 -2521.308 390.589 -2517.557 387.726 Z"/>
      <path style="fill: rgb(216, 216, 216); stroke: rgb(184, 45, 45); fill-opacity: 0;" d="M -2514.497 428.718 L -2495.751 439.285 C -2495.751 439.285 -2493.433 441.024 -2493.701 446.04 C -2493.969 451.056 -2493.701 458.479 -2493.701 458.479 C -2493.701 458.479 -2494.432 462.292 -2498.445 459.817 C -2502.458 457.342 -2517.664 443.431 -2517.664 443.431 C -2517.664 443.431 -2521.252 425.173 -2514.497 428.718 Z"/>
      <path style="fill: rgb(216, 216, 216); stroke: rgb(184, 45, 45); fill-opacity: 0;" d="M -2514.229 450.053 C -2514.229 450.053 -2496.706 464.766 -2496.706 464.699 C -2496.706 464.632 -2495.28 466.185 -2495.414 477.488 C -2495.548 488.791 -2516.473 466.786 -2516.473 466.786 C -2516.473 466.786 -2519.683 446.588 -2514.229 450.053 Z"/>
      <path style="fill: rgb(216, 216, 216); stroke: rgb(184, 45, 45); fill-opacity: 0;" d="M -2518.34 468.805 L -2499.901 485.879 C -2499.327 486.327 -2495.39 495.687 -2493.701 499.765 C -2493.128 501.146 -2492.21 504.917 -2492.274 506.14 C -2492.28 507.075 -2492.416 519.04 -2493.701 522.075 C -2494.986 525.11 -2492.936 530.583 -2493.701 535.279 C -2494.466 539.975 -2499.401 545.44 -2501.95 540.059 C -2504.499 534.678 -2519.949 519.656 -2522.267 519.116 C -2524.585 518.576 -2520.894 506.762 -2520.958 502.838 C -2521.022 498.914 -2523.417 470.08 -2518.34 468.805 Z"/>
    </g>
    <g transform="matrix(1, 0, 0, 1, 189.333545, -1043.51735)">
      <title>lower legs</title>
      <path style="fill: rgb(216, 216, 216); stroke: rgb(184, 45, 45); fill-opacity: 0;" d="M -2524.772 751.097 L -2524.772 759.077 L -2528.087 777.37 L -2528.255 819.839 L -2534.026 839.36 C -2534.026 839.36 -2536.579 862.523 -2535.72 863.996 C -2534.861 865.469 -2515.889 968.175 -2516.873 970.029 C -2517.857 971.883 -2518.179 989.024 -2518.179 989.024 C -2518.179 989.024 -2522.162 1001.867 -2522.075 1001.867 C -2521.988 1001.867 -2519.295 1010.066 -2519.295 1010.066 L -2519.292 1018.529 C -2519.292 1018.529 -2530.224 1038.146 -2534.822 1040.496 C -2539.42 1042.846 -2536.15 1055.413 -2536.048 1055.311 C -2535.946 1055.209 -2531.655 1057.354 -2529.305 1054.596 C -2526.955 1051.838 -2523.992 1055.719 -2523.992 1055.719 C -2523.992 1055.719 -2520.416 1051.633 -2516.942 1055.924"/>
      <polygon style="fill: rgb(216, 216, 216); stroke: rgb(0, 0, 0); fill-opacity: 0; stroke-opacity: 0;" points="-2524.46 758.454 -2486.755 777.141 -2484.523 806.412 -2474.352 801.947 -2482.016 824.337 -2473.02 862.266 -2473.395 895.862 -2487.826 951.784 -2481.103 1000.678 -2485.601 1057.421 -2537.33 1056.671 -2538.829 1041.677 -2520.274 1016.188 -2523.835 999.695 -2518.962 968.724 -2538.079 859.364 -2530.957 813.75"/>
      <path style="fill: rgb(216, 216, 216); stroke: rgb(184, 45, 45); fill-opacity: 0;" d="M -2516.718 1055.975 C -2516.718 1055.975 -2510.992 1052.075 -2506.546 1056.066"/>
      <path style="fill: rgb(216, 216, 216); stroke: rgb(184, 45, 45); fill-opacity: 0;" d="M -2506.123 1056.231 C -2506.304 1055.929 -2500.78 1052.114 -2493.14 1056.01 C -2485.5 1059.906 -2484.002 1040.474 -2487.396 1039.079 C -2490.79 1037.684 -2482.471 998.74 -2482.513 998.629 C -2482.555 998.518 -2485.685 982.789 -2488.487 979.3 C -2491.289 975.811 -2488.564 952.737 -2488.854 952.646 C -2489.144 952.555 -2482.977 907.906 -2481.416 907.906 C -2479.855 907.906 -2471.667 886.169 -2474.514 863.578 C -2477.361 840.987 -2483.416 824.943 -2483.416 824.943"/>
      <path style="fill: rgb(216, 216, 216); stroke: rgb(184, 45, 45); fill-opacity: 0;" d="M -2475.55 792.322 L -2484.275 825.573 C -2515.077 891.286 -2479.852 904.196 -2480.234 903.814"/>
      <path style="fill: rgb(216, 216, 216); stroke: rgb(184, 45, 45); fill-opacity: 0;" d="M -2482.331 906.368 C -2482.248 906.286 -2493.281 895.925 -2493.701 897.015 C -2494.961 900.281 -2491.438 953.138 -2490.29 953.959"/>
      <path style="fill: rgb(216, 216, 216); stroke: rgb(184, 45, 45); fill-opacity: 0;" d="M -2528.126 804.959 C -2528.126 804.959 -2520.854 792.29 -2521.513 791.606 C -2522.172 790.922 -2496.267 964.119 -2498.195 966.305 C -2500.123 968.491 -2534.256 859.84 -2528.107 824.943"/>
      <path style="fill: rgb(216, 216, 216); stroke: rgb(184, 45, 45); fill-opacity: 0;" d="M -2501.616 972.8 C -2506.43 973.65 -2540.036 844.53 -2530.788 842.864"/>
    </g>
    <g transform="matrix(1, 0, 0, 1, 189.333545, -1043.51735)">
      <title>back</title>
      <path style="fill: rgb(216, 216, 216); stroke: rgb(184, 45, 45); fill-opacity: 0;" d="M -2475.752 252.321 C -2477.071 256.773 -2504.842 278.785 -2513.548 278.293 C -2522.254 277.801 -2513.846 278.29 -2514.092 278.293 C -2514.092 278.293 -2494.653 285.576 -2493.701 285.338 C -2492.749 285.1 -2489.798 286.846 -2488.449 283.353 C -2487.1 279.86 -2475.12 251.76 -2475.752 252.321 Z"/>
      <polygon style="fill: rgb(216, 216, 216); stroke: rgb(0, 0, 0); stroke-opacity: 0; fill-opacity: 0;" points="-2532.645 328.546 -2533.12 385.658 -2523.139 426.745 -2517.664 426.784 -2521.356 354.926"/>
      <path style="fill: rgb(216, 216, 216); stroke: rgb(184, 45, 45); fill-opacity: 0;" d="M -2531.464 338.661 L -2519.015 394.248 C -2519.015 394.248 -2518.114 428.852 -2521.76 427.259 C -2525.406 425.666 -2532.179 385.129 -2532.179 385.129 L -2531.464 338.661 Z"/>
    </g>
  </g>
</svg>